<?xml version="1.0" encoding="UTF-8" standalone="no"?>
<!-- Created with Inkscape (http://www.inkscape.org/) -->

<svg
   width="1080px"
   height="424px"
   viewBox="0 0 1080 424"
   version="1.1"
   id="SVGRoot"
   sodipodi:docname="hanses3.svg"
   inkscape:version="1.1.1 (3bf5ae0d25, 2021-09-20)"
   xmlns:inkscape="http://www.inkscape.org/namespaces/inkscape"
   xmlns:sodipodi="http://sodipodi.sourceforge.net/DTD/sodipodi-0.dtd"
   xmlns="http://www.w3.org/2000/svg"
   xmlns:svg="http://www.w3.org/2000/svg">
  <sodipodi:namedview
     id="namedview1072"
     pagecolor="#505050"
     bordercolor="#eeeeee"
     borderopacity="1"
     inkscape:pageshadow="0"
     inkscape:pageopacity="0"
     inkscape:pagecheckerboard="0"
     inkscape:document-units="px"
     showgrid="false"
     inkscape:zoom="0.90509668"
     inkscape:cx="116.00971"
     inkscape:cy="191.69223"
     inkscape:window-width="1920"
     inkscape:window-height="1017"
     inkscape:window-x="-8"
     inkscape:window-y="-8"
     inkscape:window-maximized="1"
     inkscape:current-layer="layer1" />
  <defs
     id="defs1067" />
  <g
     inkscape:label="Warstwa 1"
     inkscape:groupmode="layer"
     id="layer1">
    <path
       style="fill:#322d2c;stroke-width:1.0015748;stroke-miterlimit:4;stroke-dasharray:none;fill-opacity:1"
       d="m -4.6346593,173.15074 0.00258,-47.40195 0.367854,-6.32964 0.3678539,-6.32963 H 0.23814321 4.3726571 l 0.3829349,2.53185 0.3829349,2.53186 H 20.902398 36.666269 l 0.344445,-0.88997 0.344445,-0.88997 v -1.65733 -1.65734 l 8.086374,0.15611 8.086374,0.1561 0.166187,3.10231 0.166188,3.10231 3.276298,1.03793 3.276298,1.03794 1.097233,-0.20665 1.097233,-0.20666 0.135108,-2.527 0.135102,-2.527 0.330735,-3.99258 0.33073,-3.99257 3.506417,-1.07114 3.506416,-1.07113 0.170183,-3.23515 0.170188,-3.235149 h 8.199918 8.199924 v 2.531859 2.53185 h 16.166045 16.16604 l 0.36296,-2.25054 0.36297,-2.25053 h 7.87198 7.87198 v 2.74428 2.74428 l 0.70933,0.55602 0.70933,0.55602 1.7024,0.39092 1.70239,0.39091 1.56053,0.31108 1.56053,0.31108 v 6.34625 6.34624 l 0.89761,0.34151 0.8976,0.34151 h 2.10996 2.10996 l 0.68095,0.67516 0.68096,0.67517 v -3.20702 -3.20702 h 8.19347 8.19347 l 0.38294,2.53186 0.38293,2.53185 h 15.81788 15.81787 l 0.36297,-2.25054 0.36297,-2.25053 h 8.15571 8.15571 v 2.45383 2.45384 l 1.34323,-0.2546 1.34323,-0.25458 0.35917,-3.40705 0.35916,-3.40705 v -2.65211 -2.65211 l 0.36087,-2.61038 0.36086,-2.61038 h 0.77406 0.77407 v -0.45627 -0.45627 l 2.83733,-0.72099 2.83732,-0.721 v -3.339261 -3.339258 l 8.08452,0.156103 8.08453,0.156109 0.50807,2.391196 0.50808,2.391201 h 15.74767 15.74768 l 0.34445,-0.889974 0.34444,-0.889964 V 97.008418 95.64785 h 8.22824 8.22824 v 3.004175 3.004185 l 1.44536,0.65294 1.44537,0.65295 h 0.71136 0.71137 l 1.52736,0.70329 1.52737,0.70329 0.005,6.32964 0.005,6.32964 h 0.56747 0.56746 v 2.53185 2.53186 h 0.56747 0.56746 l 1.13493,-1.12527 1.13493,-1.12527 h 0.8512 0.8512 v -0.50002 -0.50002 l 1.98612,-0.36942 1.98613,-0.36944 v -3.06899 -3.06899 h 7.90974 7.90973 l 0.38294,2.53185 0.38294,2.53186 h 16.10831 16.10832 v -2.25054 -2.25054 h 8.22824 8.22824 v 2.77526 2.77525 l 1.27679,0.39507 1.2768,0.39506 0.28373,0.34615 0.28373,0.34614 2.91349,0.98461 2.91349,0.98461 h 0.34943 0.34944 v -1.93601 -1.93602 l 0.60097,-0.36826 0.60098,-0.36826 -0.17538,-1.4935 -0.1756,-1.49351 3.54665,-1.0832 3.54666,-1.0832 v -2.9959 -2.9959 h 8.22824 8.22824 v 2.53185 2.53186 h 16.17275 16.17275 l 0.0686,-0.98461 0.0686,-0.98461 0.009,-1.26593 0.009,-1.26593 1.48272,-0.0611 1.48273,-0.0611 5.95838,-0.1 5.95838,-0.1 0.70934,0.2213 0.70933,0.22129 v 2.67463 2.67464 l 3.97225,1.24299 3.97225,1.24299 v 3.55212 3.55212 l 1.2768,0.40611 1.2768,0.40611 1.13493,-0.11285 1.13493,-0.11284 0.18915,-0.50896 0.18916,-0.50896 h 1.08763 1.08765 v -3.09449 -3.09449 h 1.98612 1.98613 v -0.84395 -0.84395 h 4.22122 4.22121 l 0.38294,2.53185 0.38293,2.53186 h 15.76387 15.76387 l 0.34445,-0.88997 0.34445,-0.88997 v -1.65733 -1.65734 l 8.08637,0.15611 8.08637,0.1561 0.16619,3.10231 0.16619,3.10231 3.2763,1.03793 3.27629,1.03794 1.09724,-0.20665 1.09723,-0.20666 0.13511,-2.527 0.1351,-2.527 0.33074,-3.99258 0.33073,-3.99257 3.50641,-1.07114 3.50638,-1.07113 0.17018,-3.23515 0.17019,-3.235149 h 8.19992 8.19992 v 2.531859 2.53185 h 16.16605 16.16606 l 0.36295,-2.25054 0.36295,-2.25053 h 7.87198 7.87199 v 2.74428 2.74428 l 0.70933,0.55602 0.70933,0.55602 1.70239,0.39092 1.7024,0.39091 1.56053,0.31108 1.56053,0.31108 v 6.34625 6.34624 l 0.89761,0.34151 0.89762,0.34151 h 2.10995 2.10994 l 0.68096,0.67516 0.68096,0.67517 v -3.20702 -3.20702 h 8.19345 8.19352 l 0.38292,2.53186 0.38293,2.53185 h 15.81785 15.81791 l 0.36295,-2.25054 0.36295,-2.25053 h 8.15572 8.15572 v 2.45383 2.45384 l 1.34325,-0.2546 1.34319,-0.25458 0.3592,-3.40705 0.35915,-3.40705 v -2.65211 -2.65211 l 0.36085,-2.61038 0.36085,-2.61038 h 0.77408 0.77408 v -0.45627 -0.45627 l 2.83732,-0.72099 2.83733,-0.721 v -3.339261 -3.339258 l 8.0845,0.156103 8.08456,0.156109 0.50805,2.391196 0.50811,2.391201 h 15.74766 15.74766 l 0.34445,-0.889974 0.34445,-0.889964 V 97.008418 95.64785 h 8.22824 8.22824 v 3.004175 3.004185 l 1.44539,0.65294 1.44533,0.65295 h 0.71138 0.71137 l 1.52733,0.70329 1.52739,0.70329 0.006,6.32964 0.006,6.32964 h 0.56746 0.56747 v 2.53185 2.53186 h 0.56746 0.56747 l 1.13493,-1.12527 1.13493,-1.12527 h 0.8512 0.85119 v -0.50002 -0.50002 l 1.98613,-0.36942 1.98613,-0.36944 v -3.06899 -3.06899 h 7.90972 7.90978 l 0.38292,2.53185 0.38293,2.53186 h 16.10828 16.10834 v -2.25054 -2.25054 h 8.22824 8.22824 v 2.77526 2.77525 l 1.2768,0.39507 1.2768,0.39506 0.28373,0.34615 0.28373,0.34614 2.91348,0.98461 2.91348,0.98461 h 0.34944 0.34945 v -1.93601 -1.93602 l 0.60094,-0.36826 0.601,-0.36826 -0.1754,-1.4935 -0.17535,-1.49351 3.54666,-1.0832 3.54665,-1.0832 v -2.9959 -2.9959 h 8.22824 8.22824 v 2.53185 2.53186 h 16.17275 16.17275 l 0.0686,-0.98461 0.0686,-0.98461 0.009,-1.26593 0.009,-1.26593 1.48272,-0.0611 1.48273,-0.0611 5.95838,-0.1 5.95839,-0.1 0.70933,0.2213 0.70933,0.22129 v 2.67463 2.67464 l 3.97225,1.24299 3.97225,1.24299 v 3.55212 3.55212 l 1.2768,0.40611 1.2768,0.40611 1.13493,-0.11285 1.13493,-0.11284 0.18913,-0.50896 0.18919,-0.50896 h 1.08761 1.08766 v -3.09449 -3.09449 h 7.90972 7.90978 l 0.38292,2.53185 0.38293,2.53186 h 15.81786 15.8179 l 0.3629,-2.25054 0.363,-2.25054 h 8.1557 8.1557 v -0.75363 -0.75364 l 3.6886,-1.04586 3.6885,-1.04586 v -2.98289 -2.9829 h 8.2282 8.2283 v 2.53185 2.53186 h 15.8556 15.8556 l 0.4738,-2.3912 0.4739,-2.39119 2.1131,-0.17463 2.1132,-0.17462 V 163.13 220.55268 H 540.12901 -4.6372399 Z"
       id="path7788" />
  </g>
</svg>
