<?xml version="1.0" encoding="UTF-8" standalone="no"?>
<!-- Created with Inkscape (http://www.inkscape.org/) -->

<svg
   width="1080px"
   height="424px"
   viewBox="0 0 1080 424"
   version="1.1"
   id="SVGRoot"
   sodipodi:docname="hanses1.svg"
   inkscape:version="1.1.1 (3bf5ae0d25, 2021-09-20)"
   xmlns:inkscape="http://www.inkscape.org/namespaces/inkscape"
   xmlns:sodipodi="http://sodipodi.sourceforge.net/DTD/sodipodi-0.dtd"
   xmlns="http://www.w3.org/2000/svg"
   xmlns:svg="http://www.w3.org/2000/svg">
  <sodipodi:namedview
     id="namedview1072"
     pagecolor="#505050"
     bordercolor="#eeeeee"
     borderopacity="1"
     inkscape:pageshadow="0"
     inkscape:pageopacity="0"
     inkscape:pagecheckerboard="0"
     inkscape:document-units="px"
     showgrid="false"
     inkscape:zoom="1.8101934"
     inkscape:cx="578.94368"
     inkscape:cy="81.483008"
     inkscape:window-width="1920"
     inkscape:window-height="1017"
     inkscape:window-x="-8"
     inkscape:window-y="-8"
     inkscape:window-maximized="1"
     inkscape:current-layer="layer1" />
  <defs
     id="defs1067" />
  <g
     inkscape:label="Warstwa 1"
     inkscape:groupmode="layer"
     id="layer1">
    <path
       style="fill:#3e3c4c;fill-opacity:1;stroke-width:1"
       d="m -1.1157117,154.46911 0.00188,-68.750454 0.36819661,-15.750102 0.36819662,-15.750103 H 2.916253 6.2099468 v 3.500023 3.500022 H 18.342656 30.475365 l 0.338194,-3.000019 0.338194,-3.00002 h 5.566109 5.566109 v -4.377584 -4.377584 l 0.704571,-0.992128 0.704571,-0.992128 2.113713,-1.207883 2.113711,-1.207883 V 37.64079 33.218313 h 6.166199 6.166198 l 0.174936,3.750024 0.174942,3.750025 12.231941,0.269368 12.231946,0.269368 0.372144,-3.519389 0.372148,-3.51939 h 6.137493 6.137494 v 4.031412 4.031411 l 0.9864,0.541621 0.986392,0.54162 1.83189,1.410829 1.83188,1.410829 v 3.016198 3.016198 h 5.85567 5.85567 l 0.37215,3.51939 0.37213,3.519389 12.23196,-0.269368 12.23193,-0.269368 0.17836,-2.750018 0.17835,-2.750018 h 6.13037 6.13038 l 0.17332,4.172306 0.17333,4.172308 2.53645,1.477674 2.53645,1.477674 0.34454,0.934597 0.34455,0.934596 0.35233,-2.334549 0.35233,-2.33455 0.0139,-4.000026 0.0139,-4.000027 0.33322,-3.500023 0.33322,-3.500023 2.09987,-1.750011 2.09986,-1.750012 h 0.66082 0.66083 v -4.500029 -4.50003 h 6.17468 6.17467 l 0.37011,3.500023 0.37009,3.500023 h 12.06999 12.06998 l 0.33819,-3.000019 0.3382,-3.00002 h 6.12976 6.12977 v 3.779884 3.779884 l 2.81828,1.940294 2.81828,1.940295 v 8.279913 8.279914 h 0.56366 0.56366 v 1.440992 1.440992 l 0.50576,0.554562 0.50577,0.554562 1.74886,-0.620545 1.74881,-0.620545 V 61.593499 57.21847 h 6.17469 6.17467 l 0.37011,3.500023 0.37009,3.500023 h 11.99559 11.99558 l 0.34214,-1.581797 0.34213,-1.581799 v -1.76019 -1.760192 l 6.20022,0.0694 6.20023,0.0694 v 4.272592 4.272593 h 0.78627 0.78629 l 0.38106,-4.250028 0.38106,-4.250027 0.2838,-8.286756 0.2838,-8.286755 2.77628,-2.150701 2.77628,-2.150696 v -4.312641 -4.31264 h 6.15068 6.15068 l 0.38092,4.000026 0.38092,4.000027 h 12.04352 12.04354 l 0.3701,-3.500023 0.3701,-3.500023 h 6.13749 6.1375 v 3.801557 3.801556 l 2.81828,2.112452 2.81828,2.112453 v 8.086083 8.086082 h 0.56365 0.56367 v 4.50003 4.500029 h 0.56365 0.56366 v -1.366684 -1.366683 l 2.81828,-2.07792 2.81829,-2.07792 v -4.055445 -4.055445 h 5.89285 5.89285 l 0.3701,3.500023 0.3701,3.500023 h 12.06997 12.06998 l 0.3382,-3.00002 0.3382,-3.00002 h 6.09735 6.09736 l 0.17332,4.135382 0.17332,4.135381 2.67737,1.510333 2.67737,1.510333 v 1.354332 1.354331 h 0.84549 0.84548 V 63.34351 60.468492 l 0.35268,-3.128544 0.35269,-3.128542 2.74743,-1.731209 2.74743,-1.731207 v -4.265309 -4.265309 h 6.20021 6.20023 v 3.500023 3.500023 h 12.40045 12.40044 v -3.00002 -3.00002 h 6.20023 6.20022 v 3.919659 3.91966 l 2.81828,1.660744 2.81828,1.660744 v 5.919672 5.919672 h 1.37589 1.37587 l 0.34836,-1.000006 0.34836,-1.000007 h 1.09405 1.09405 v -4.353292 -4.353293 l 4.31246,-0.64674 4.31247,-0.64674 h 1.88776 1.88775 v 3.500023 3.500022 h 12.1327 12.13271 l 0.3382,-3.000019 0.3382,-3.00002 h 5.56611 5.5661 v -4.377584 -4.377584 l 0.70458,-0.992128 0.70456,-0.992128 2.11372,-1.207883 2.11371,-1.207883 V 37.64079 33.218313 h 6.1662 6.16619 l 0.17494,3.750024 0.17495,3.750025 12.23194,0.269368 12.23193,0.269368 0.37213,-3.519389 0.37219,-3.51939 h 6.13748 6.13749 v 4.031412 4.031411 l 0.9864,0.541621 0.9864,0.54162 1.83188,1.410829 1.83188,1.410829 v 3.016198 3.016198 h 5.85567 5.85566 l 0.37218,3.51939 0.37213,3.519389 12.23191,-0.269368 12.23196,-0.269368 0.17835,-2.750018 0.17834,-2.750018 h 6.13038 6.13039 l 0.17332,4.172306 0.17333,4.172308 2.53646,1.477674 2.53645,1.477674 0.34457,0.934597 0.3445,0.934596 0.35234,-2.334549 0.35234,-2.33455 0.0141,-4.000026 0.0141,-4.000027 0.33324,-3.500023 0.33323,-3.500023 2.09985,-1.750011 2.09984,-1.750012 h 0.66084 0.66083 v -4.500029 -4.50003 h 6.17468 6.1747 l 0.37009,3.500023 0.3701,3.500023 h 12.06997 12.06998 l 0.33819,-3.000019 0.3382,-3.00002 h 6.12976 6.12977 v 3.779884 3.779884 l 2.81828,1.940294 2.81828,1.940295 v 8.279913 8.279914 h 0.56367 0.56365 v 1.440992 1.440992 l 0.50576,0.554562 0.50578,0.554562 1.74885,-0.620545 1.74846,-0.620545 V 61.593499 57.21847 h 6.17469 6.1747 l 0.37009,3.500023 0.3701,3.500023 h 11.99557 11.99558 l 0.34213,-1.581797 0.34214,-1.581799 v -1.76019 -1.760192 l 6.20022,0.0694 6.20023,0.0694 v 4.272592 4.272593 h 0.78629 0.78626 l 0.38108,-4.250028 0.38103,-4.250027 0.28381,-8.286756 0.28379,-8.286755 2.7763,-2.150701 2.77628,-2.150701 v -4.312641 -4.31264 h 6.15069 6.15067 l 0.38092,4.000026 0.38092,4.000027 h 12.04354 12.04354 l 0.37009,-3.500023 0.3701,-3.500023 h 6.13749 6.13749 v 3.801557 3.801556 l 2.81828,2.112452 2.81828,2.112453 v 8.086083 8.086082 h 0.56366 0.56366 v 4.50003 4.500029 h 0.56365 0.56366 v -1.366684 -1.366683 l 2.81828,-2.07792 2.81829,-2.07792 v -4.055445 -4.055445 h 5.89286 5.89286 l 0.37009,3.500023 0.3701,3.500023 h 12.06998 12.06997 l 0.33819,-3.00002 0.3382,-3.00002 h 6.09736 6.09735 l 0.17333,4.135382 0.17332,4.135381 2.67736,1.510333 2.67737,1.510333 v 1.354332 1.354331 h 0.84549 0.84549 v -2.875019 -2.875018 l 0.35268,-3.128544 0.35267,-3.128542 2.74744,-1.731209 2.74743,-1.731207 v -4.265309 -4.265309 h 6.20022 6.20022 v 3.500023 3.500023 h 12.40045 12.40045 v -3.00002 -3.00002 h 6.20022 6.20023 v 3.919659 3.91966 l 2.81828,1.660744 2.81828,1.660744 v 5.919672 5.919672 h 1.37589 1.37588 l 0.34834,-1.000006 0.34834,-1.000007 h 1.09406 1.09406 v -4.500029 -4.50003 h 6.20021 6.20023 v 3.500023 3.500023 h 12.41454 12.41454 l 0.33819,-3.00002 0.3382,-3.000019 h 6.12976 6.12975 v -0.958883 -0.958883 l 2.8183,-1.775855 2.8183,-1.775853 v -4.265309 -4.265309 h 5.8557 5.8557 l 0.37,3.500023 0.3701,3.500023 h 12.3749 12.375 v -3.00002 -3.00002 h 6.1677 6.1679 l 0.1733,4.135382 0.1733,4.135381 2.6774,1.510333 2.6774,1.510333 v 5.854362 5.85436 h 1.6909 1.691 V 61.68711 57.155695 l 0.9864,-0.575681 0.9864,-0.575682 1.8319,-1.439864 1.8319,-1.439865 v -3.953108 -3.953108 h 3.3819 3.3819 v 89.000593 89.00058 H 539.99278 -1.1175894 Z"
       id="path5594" />
  </g>
</svg>
