<?xml version="1.0" encoding="UTF-8" standalone="no"?>
<!-- Created with Inkscape (http://www.inkscape.org/) -->

<svg
   width="1080px"
   height="424px"
   viewBox="0 0 1080 424"
   version="1.1"
   id="SVGRoot"
   sodipodi:docname="hanses0.svg"
   inkscape:version="1.1.1 (3bf5ae0d25, 2021-09-20)"
   xmlns:inkscape="http://www.inkscape.org/namespaces/inkscape"
   xmlns:sodipodi="http://sodipodi.sourceforge.net/DTD/sodipodi-0.dtd"
   xmlns="http://www.w3.org/2000/svg"
   xmlns:svg="http://www.w3.org/2000/svg">
  <sodipodi:namedview
     id="namedview1072"
     pagecolor="#505050"
     bordercolor="#eeeeee"
     borderopacity="1"
     inkscape:pageshadow="0"
     inkscape:pageopacity="0"
     inkscape:pagecheckerboard="0"
     inkscape:document-units="px"
     showgrid="false"
     inkscape:zoom="4"
     inkscape:cx="11.75"
     inkscape:cy="85.375"
     inkscape:window-width="1920"
     inkscape:window-height="1017"
     inkscape:window-x="-8"
     inkscape:window-y="-8"
     inkscape:window-maximized="1"
     inkscape:current-layer="layer1" />
  <defs
     id="defs1067" />
  <g
     inkscape:label="Warstwa 1"
     inkscape:groupmode="layer"
     id="layer1">
    <path
       style="fill:#494968;fill-opacity:1;stroke-width:0.999997"
       d="M -1.7488448,111.75791 -1.7476848,59.504214 -1.3761054,33.252355 -1.004526,7.0004958 H 2.8159801 6.6364909 L 6.816824,9.2506551 6.9971571,11.500814 17.813083,11.772132 28.629008,12.043449 29.003493,9.0219371 29.377979,6.000425 h 5.316321 5.316321 v 3.4745659 3.4745661 l 1.664974,1.525788 1.664973,1.525788 h 0.810447 0.810447 l 0.380822,4.500319 0.380821,4.500319 h 1.064595 1.064596 l 0.170574,-5.250372 0.170576,-5.250372 2.398413,-1.344988 2.398415,-1.344989 V 7.9056668 4.0002833 h 5.572785 5.572786 l 0.338599,3.0002125 0.3386,3.0002122 H 75.504632 86.196226 L 86.56807,7.0004958 86.939915,4.0002833 h 5.316324 5.316319 v 3.5250004 3.5250013 l 1.55192,0.955356 1.551912,0.955358 1.59764,1.520068 1.59765,1.520066 h 4.99401 4.99402 l 0.18033,2.25016 0.18033,2.250159 10.81593,0.271317 10.81593,0.271317 0.37448,-3.021512 0.37449,-3.021512 h 5.31632 5.31631 v 3.474566 3.474567 l 1.66498,1.525788 1.66498,1.525788 h 0.84503 0.84503 l 0.17057,-5.250372 0.17058,-5.250372 2.39841,-1.46927 2.39841,-1.46927 V 7.7813851 4.0002833 h 5.64333 5.64333 v 3.0002125 3.0002122 h 11.00449 11.00449 V 7.0004958 4.0002833 h 5.60926 5.60926 l 0.17514,3.6729605 0.17516,3.6729612 2.36217,1.389324 2.36217,1.389325 0.38344,5.438458 0.38343,5.438459 h 0.4993 0.49931 v -1.370136 -1.370136 l 2.5395,-1.260012 2.5395,-1.260011 V 15.871163 12.00085 h 5.57278 5.57279 l 0.33859,3.000212 0.33861,3.000213 h 10.66589 10.66588 l 0.33861,-3.000213 0.33859,-3.000212 h 5.34121 5.3412 l 0.17514,3.67296 0.17516,3.672961 2.36388,1.39033 2.36387,1.39033 0.25123,1.687188 0.25125,1.687187 0.0655,-4.250301 0.0654,-4.250301 h 0.56433 0.56433 V 9.7015755 2.401947 L 267.05353,1.2009735 268.92767,0 h 24.05861 24.05859 l 1.40023,1.1305928 1.40023,1.1305928 0.3011,3.6197436 0.3011,3.6197436 0.3667,7.7505492 0.36669,7.750549 h 0.78019 0.7802 v -4.000284 -4.000283 h 5.60585 5.60584 l 0.17857,2.750195 0.17856,2.750195 10.79048,0.271159 10.79047,0.27116 0.341,-3.021355 0.34098,-3.021354 h 5.3412 5.3412 l 0.17515,3.750266 0.17515,3.750265 2.04267,0.302614 2.04267,0.302613 0.34804,-2.302755 0.34804,-2.302755 0.008,-6.531297 0.008,-6.5312962 2.39842,-1.46927 2.39842,-1.4692701 L 377.3804,2.2501594 377.56009,0 h 5.62179 5.62178 l 0.32484,1.5001062 0.32483,1.5001063 h 10.66194 10.66195 V 1.5001062 0 h 5.64333 5.64332 v 1.8642741 1.8642742 l 2.47323,1.6738381 2.47323,1.6738382 0.34843,3.0873574 0.34844,3.087356 0.008,3.625257 0.008,3.625257 0.3185,2.102564 0.3185,2.102564 2.05045,-1.852546 2.05044,-1.852547 h 0.72718 0.72717 v -4.000283 -4.000283 h 5.64333 5.64333 v 3.000212 3.000213 h 11.00449 11.00448 v -3.000213 -3.000212 h 5.60758 5.60757 l 0.17683,-3.2502305 0.17685,-3.2502301 0.42325,0.2500177 0.42325,0.2500177 h 3.91108 3.91107 l 0.18034,2.2501593 0.18033,2.2501589 10.81593,0.271318 10.81593,0.271317 0.37448,-3.0215119 0.37449,-3.0215121 h 5.31632 5.31632 v 3.4745659 3.4745661 l 1.66497,1.525788 1.66498,1.525788 h 0.81045 0.81043 l 0.38083,4.500319 0.38082,4.500319 h 1.06459 1.0646 l 0.17057,-5.250372 0.17058,-5.250372 2.39842,-1.344988 2.39841,-1.344989 V 7.9056668 4.0002833 h 5.57279 5.57278 l 0.3386,3.0002125 0.3386,3.0002122 h 10.69158 10.69161 l 0.37183,-3.0002122 0.37184,-3.0002125 h 5.31636 5.3163 v 3.5250004 3.5250013 l 1.55191,0.955356 1.55192,0.955358 1.59762,1.520068 1.59769,1.520066 h 4.994 4.994 l 0.18031,2.25016 0.18036,2.250159 10.81594,0.271317 10.81589,0.271317 0.37449,-3.021512 0.37449,-3.021512 h 5.31635 5.31631 v 3.474566 3.474567 l 1.66495,1.525788 1.665,1.525788 h 0.84503 0.84503 l 0.17054,-5.250372 0.1706,-5.250372 2.39842,-1.46927 2.39841,-1.46927 V 7.7813851 4.0002833 h 5.64333 5.64333 v 3.0002125 3.0002122 h 11.00449 11.00448 V 7.0004958 4.0002833 h 5.60924 5.6093 l 0.17512,3.6729605 0.17516,3.6729612 2.36219,1.389324 2.36218,1.389325 0.38341,5.438458 0.38341,5.438459 h 0.49932 0.49932 v -1.370136 -1.370136 l 2.5395,-1.260012 2.53949,-1.260011 V 15.871163 12.00085 h 5.57279 5.57278 l 0.33861,3.000212 0.33859,3.000213 h 10.6659 10.66588 l 0.3386,-3.000213 0.3386,-3.000212 h 5.34119 5.34123 l 0.17512,3.67296 0.17516,3.672961 2.36388,1.39033 2.36388,1.39033 0.25124,1.687188 0.25124,1.687187 0.0655,-4.250301 0.0654,-4.250301 h 0.56434 0.56433 V 9.7015755 2.401947 L 747.865,1.2009735 749.73914,0 h 24.05859 24.05862 l 1.40023,1.1305928 1.40022,1.1305928 0.30113,3.6197436 0.30108,3.6197436 0.36669,7.7505492 0.3667,7.750549 h 0.78019 0.78019 v -4.000284 -4.000283 h 5.60586 5.60586 l 0.17856,2.750195 0.17854,2.750195 10.7905,0.271159 10.79044,0.27116 0.34103,-3.021355 0.34096,-3.021354 h 5.34118 5.34125 l 0.17511,3.750266 0.17517,3.750265 2.04266,0.302614 2.04265,0.302613 0.34809,-2.302755 0.34802,-2.302755 0.008,-6.531297 0.008,-6.5312962 2.39841,-1.46927 2.39842,-1.4692701 L 858.1919,2.2501594 858.37195,0 h 5.62177 5.62183 l 0.32483,1.5001062 0.32483,1.5001063 h 10.66194 10.66193 V 1.5001062 0 h 5.64333 5.64333 v 1.8642741 1.8642742 l 2.47325,1.6738381 2.47318,1.6738382 0.34847,3.0873574 0.34803,3.087356 0.008,3.625257 0.008,3.625257 0.31851,2.102564 0.31852,2.102564 2.05044,-1.852546 2.05045,-1.852547 h 0.72714 0.7272 v -4.000283 -4.000283 h 5.64332 5.64333 v 3.000212 3.000213 h 11.00449 11.00449 v -3.000213 -3.000212 h 5.60755 5.6076 l 0.1768,-3.1637922 0.17687,-3.163792 2.39841,-1.5431958 2.39842,-1.5431959 V 1.7934726 L 964.38761,0 h 5.64333 5.64333 v 1.0000708 1.0000709 h 11.00448 11.00449 V 1.0000708 0 h 5.64326 5.6434 v 1.7934726 1.7934725 l 2.3984,1.5439522 2.3985,1.543952 0.1734,4.1631067 0.1736,4.163106 h 5.0466 5.0465 v 3.000213 3.000212 h 11.0044 11.0046 v -3.000212 -3.000213 h 3.6357 3.6357 l 0.1735,-4.163106 0.1736,-4.1631067 2.3983,-1.543952 2.3985,-1.5439522 V 1.7934726 0 h 5.9255 5.9255 v 1.0000708 1.0000709 h 5.6433 5.6433 V 83.005879 164.01162 H 540.00941 -1.75 Z"
       id="path1305" />
  </g>
</svg>
