<?xml version="1.0" encoding="UTF-8" standalone="no"?>
<!-- Created with Inkscape (http://www.inkscape.org/) -->

<svg
   width="1080px"
   height="424px"
   viewBox="0 0 1080 424"
   version="1.1"
   id="SVGRoot"
   sodipodi:docname="hanses2.svg"
   inkscape:version="1.1.1 (3bf5ae0d25, 2021-09-20)"
   xmlns:inkscape="http://www.inkscape.org/namespaces/inkscape"
   xmlns:sodipodi="http://sodipodi.sourceforge.net/DTD/sodipodi-0.dtd"
   xmlns="http://www.w3.org/2000/svg"
   xmlns:svg="http://www.w3.org/2000/svg">
  <sodipodi:namedview
     id="namedview1072"
     pagecolor="#505050"
     bordercolor="#eeeeee"
     borderopacity="1"
     inkscape:pageshadow="0"
     inkscape:pageopacity="0"
     inkscape:pagecheckerboard="0"
     inkscape:document-units="px"
     showgrid="false"
     inkscape:zoom="1.28"
     inkscape:cx="289.84375"
     inkscape:cy="231.64063"
     inkscape:window-width="1920"
     inkscape:window-height="1017"
     inkscape:window-x="-8"
     inkscape:window-y="-8"
     inkscape:window-maximized="1"
     inkscape:current-layer="layer1" />
  <defs
     id="defs1067" />
  <g
     inkscape:label="Warstwa 1"
     inkscape:groupmode="layer"
     id="layer1">
    <path
       style="fill:#393641;stroke-width:1;fill-opacity:1"
       d="m -5.721436,134.13156 v -33.6813 L -5.345488,81.783114 -4.9695401,63.115973 H 0.61981888 6.2091781 v 2.4647 2.4647 l 1.5623423,0.611795 1.5623423,0.611791 1.5623423,0.361846 1.562342,0.361851 v 2.75341 2.75341 h 4.495059 4.495059 l 0.383936,2.251547 0.383936,2.251546 h 13.585051 13.58505 v -1.970103 -1.970103 h 6.18391 6.183905 l 0.385762,-3.059035 0.385756,-3.059041 1.668139,-0.363005 1.668138,-0.363006 v -0.518165 -0.51816 l 0.426094,0.06666 0.426093,0.06666 0.994218,-0.06666 0.994218,-0.06666 v -2.814432 -2.814433 h 6.767555 6.767556 l 0.383939,2.251546 0.383938,2.251546 h 13.585049 13.585052 v -1.970102 -1.970103 h 7.10155 7.10156 v 2.46734 2.46734 l 0.99422,0.346873 0.99422,0.346873 2.27249,0.718677 2.2725,0.718671 0.17633,2.095981 0.17632,2.095975 h 6.4492 6.4492 l 0.38394,2.251546 0.38394,2.251547 h 13.58505 13.58505 V 76.906693 74.93659 h 7.10155 7.10156 v 2.522266 2.522267 l 1.56234,0.37204 1.56234,0.372039 2.06934,1.026441 2.06935,1.026446 0.33742,-1.247041 0.33744,-1.247036 0.008,-2.595149 0.008,-2.595149 0.35611,-2.574136 0.35611,-2.574131 2.20045,-0.368336 2.20046,-0.368342 V 68.69536 68.181951 h 0.85218 0.85219 v -2.532989 -2.532989 h 6.78319 6.78321 l 0.17632,2.110824 0.17633,2.110825 13.77702,0.150729 13.77702,0.15073 v -2.261554 -2.261554 h 7.10155 7.10156 l 0.009,2.392267 0.009,2.392268 0.41739,0.606471 0.4174,0.606471 2.55656,0.520625 2.55656,0.520625 0.1626,5.486821 0.1626,5.486821 h 0.54756 0.54755 v 0.84433 0.844329 h 2.55656 2.55656 v -2.814432 -2.814433 h 7.06726 7.06726 l 0.17632,2.110825 0.17633,2.110824 h 13.63499 13.63499 l 0.17803,-1.829381 0.17802,-1.829381 h 7.06556 7.06556 v 2.532989 2.532989 h 1.08323 1.08323 l 0.35921,-5.488143 0.3592,-5.488144 0.40397,-2.458232 0.40397,-2.458227 2.98212,-1.200536 2.9821,-1.20053 5.5e-4,-2.392268 5.6e-4,-2.392268 h 6.81078 6.81078 l 0.36339,2.251547 0.36339,2.251546 h 13.56237 13.56238 V 61.9902 59.738653 h 7.10155 7.10156 v 2.447504 2.447498 l 2.13047,0.8821 2.13046,0.882094 0.99422,0.311501 0.99422,0.311496 v 5.365091 5.365086 h 0.56812 0.56813 v 2.532989 2.532989 h 0.56812 0.56813 v -0.861993 -0.861999 l 0.99422,-0.314816 0.99421,-0.314823 1.13625,-0.460801 1.13625,-0.460802 0.99422,-0.314822 0.99422,-0.314817 V 76.36147 73.810817 h 7.03843 7.03843 l -0.0264,0.703608 -0.0264,0.703608 0.0895,1.266495 0.0895,1.266495 h 13.64919 13.64919 l 0.34087,-1.68866 0.34088,-1.68866 h 7.03054 7.03054 v 2.455936 2.455936 l 3.12468,0.973771 3.12469,0.973771 v 0.791942 0.791942 h 0.56812 0.56813 V 80.88012 78.943233 l 0.56812,-0.347881 0.56813,-0.34788 v -1.305711 -1.305706 l 1.8464,-0.682505 1.84641,-0.682506 1.27828,-0.499489 1.27828,-0.499488 v -2.545058 -2.545058 h 1.13625 1.13624 v -2.532989 -2.532989 h 5.68125 5.68124 v 2.4647 2.4647 l 1.56235,0.611795 1.56234,0.611791 1.56234,0.361846 1.56234,0.361851 v 2.75341 2.75341 h 4.49506 4.49506 l 0.38394,2.251547 0.38394,2.251546 h 13.58505 13.58504 v -1.970103 -1.970103 h 6.18391 6.18391 l 0.38576,-3.059035 0.38576,-3.059041 1.66814,-0.363005 1.66813,-0.363006 v -0.518165 -0.51816 l 0.4261,0.06666 0.42609,0.06666 0.99422,-0.06666 0.99422,-0.06666 v -2.814432 -2.814433 h 6.76755 6.76756 l 0.38394,2.251546 0.38394,2.251546 h 13.58504 13.58505 v -1.970102 -1.970103 h 7.10156 7.10156 v 2.46734 2.46734 l 0.99421,0.346873 0.99422,0.346873 2.2725,0.718677 2.2725,0.718671 0.17634,2.095981 0.17629,2.095975 h 6.44924 6.44918 l 0.38393,2.251546 0.38394,2.251547 h 13.58505 13.58505 V 76.906693 74.93659 h 7.10156 7.10155 v 2.522266 2.522267 l 1.56235,0.37204 1.56234,0.372039 2.06934,1.026441 2.06933,1.026446 0.33747,-1.247041 0.33741,-1.247036 0.008,-2.595149 0.008,-2.595149 0.35611,-2.574136 0.3561,-2.574131 2.20046,-0.368336 2.20045,-0.368342 V 68.69536 68.181951 h 0.85219 0.85219 v -2.532989 -2.532989 h 6.78318 6.78323 l 0.17629,2.110824 0.17635,2.110825 13.77702,0.150729 13.77702,0.15073 v -2.261554 -2.261554 h 7.10155 7.10156 l 0.009,2.392267 0.009,2.392268 0.4174,0.606471 0.4174,0.606471 2.55656,0.520625 2.55656,0.520625 0.1626,5.486821 0.1626,5.486821 h 0.54756 0.54755 v 0.84433 0.844329 h 2.55656 2.55656 v -2.814432 -2.814433 h 7.06725 7.06729 l 0.17629,2.110825 0.17635,2.110824 h 13.63499 13.63498 l 0.17805,-1.829381 0.178,-1.829381 h 7.06559 7.06554 v 2.532989 2.532989 h 1.08324 1.08324 l 0.35917,-5.488143 0.35923,-5.488144 0.40393,-2.458232 0.404,-2.458227 2.98208,-1.200536 2.98215,-1.20053 5.1e-4,-2.392268 5.6e-4,-2.392268 h 6.81079 6.81079 l 0.36338,2.251547 0.36337,2.251546 h 13.56238 13.56238 V 61.9902 59.738653 h 7.10156 7.10155 v 2.447504 2.447498 l 2.13047,0.8821 2.13047,0.882094 0.99421,0.311501 0.99422,0.311496 v 5.365091 5.365086 h 0.56813 0.56812 v 2.532989 2.532989 h 0.56813 0.56812 v -0.861993 -0.861999 l 0.99422,-0.314816 0.99422,-0.314823 1.13625,-0.460801 1.13624,-0.460802 0.99422,-0.314822 0.99422,-0.314817 V 76.36147 73.810817 h 7.03844 7.03843 l -0.0261,0.703608 -0.0261,0.703608 0.0895,1.266495 0.0895,1.266495 h 13.64919 13.64919 l 0.34088,-1.68866 0.34087,-1.68866 h 7.03054 7.03054 v 2.455936 2.455936 l 3.12469,0.973771 3.12468,0.973771 v 0.791942 0.791942 h 0.56813 0.56812 V 80.88012 78.943233 l 0.56813,-0.347881 0.56812,-0.34788 v -1.305711 -1.305706 l 1.84641,-0.682505 1.8464,-0.682506 1.27828,-0.499489 1.27828,-0.499488 v -2.545058 -2.545058 h 6.81749 6.8175 v 2.251547 2.251546 h 13.5742 13.57426 l 0.3448,-0.890369 0.3449,-0.890362 v -1.361184 -1.361178 h 7.1015 7.1016 v 2.828505 2.828505 l 1.7162,0.340074 1.7162,0.340073 0.3057,0.490184 0.3058,0.490184 h 1.1027 1.1027 v 3.721407 3.721406 l 2.1305,-0.391122 2.1305,-0.391127 0.1893,-0.515847 0.1894,-0.515851 h 0.8048 0.8049 v -2.53299 -2.532989 h 6.8108 6.8108 l 0.3634,2.251546 0.3633,2.251546 h 13.2176 13.2175 l 0.3448,-0.890368 0.3449,-0.890363 V 77.454837 76.12495 l 7.3866,-0.172018 7.3866,-0.172012 v 46.01597 46.01598 H 539.68062 -5.7188794 v -33.68131 z"
       id="path6614" />
  </g>
</svg>
