<?xml version="1.0" encoding="UTF-8" standalone="no"?>
<!-- Created with Inkscape (http://www.inkscape.org/) -->

<svg
   version="1.1"
   id="svg2"
   width="1920"
   height="1080"
   viewBox="0 0 1920 1080"
   sodipodi:docname="header_static_full.svg"
   inkscape:version="1.1.1 (3bf5ae0d25, 2021-09-20)"
   xmlns:inkscape="http://www.inkscape.org/namespaces/inkscape"
   xmlns:sodipodi="http://sodipodi.sourceforge.net/DTD/sodipodi-0.dtd"
   xmlns="http://www.w3.org/2000/svg"
   xmlns:svg="http://www.w3.org/2000/svg">
  <defs
     id="defs6" />
  <sodipodi:namedview
     id="namedview4"
     pagecolor="#505050"
     bordercolor="#eeeeee"
     borderopacity="1"
     inkscape:pageshadow="0"
     inkscape:pageopacity="0"
     inkscape:pagecheckerboard="0"
     showgrid="false"
     inkscape:zoom="0.41321553"
     inkscape:cx="784.09445"
     inkscape:cy="310.97573"
     inkscape:window-width="1920"
     inkscape:window-height="1017"
     inkscape:window-x="-8"
     inkscape:window-y="-8"
     inkscape:window-maximized="1"
     inkscape:current-layer="g8" />
  <g
     inkscape:groupmode="layer"
     inkscape:label="Image"
     id="g8">
    <path
       style="fill:#2f2a25;fill-opacity:1"
       d="M 0,723.15925 V 366.3185 l 21.75,-0.6568 c 11.9625,-0.36123 25.41879,-0.6579 29.902867,-0.65925 l 8.152867,-0.002 0.347133,17.91771 c 0.190923,9.85473 0.722114,18.29223 1.180425,18.75 1.088074,1.08677 131.242868,1.08849 132.333328,0.002 0.45836,-0.4568 0.97755,-7.76868 1.15375,-16.24861 0.31677,-15.24454 0.3469,-15.42473 2.67757,-16.00969 1.29645,-0.32539 3.14168,-0.15259 4.10051,0.384 1.89241,1.05904 2.03333,5.43747 0.75672,23.51173 l -0.62204,8.80688 5.38344,-0.30688 c 4.90794,-0.27978 5.40725,-0.5277 5.65312,-2.80689 0.8664,-8.03135 1.27276,-9 3.77562,-9 2.30244,0 2.45469,0.33409 2.45469,5.38646 v 5.38645 l 4.5,0.67482 c 3.49075,0.52347 4.5,1.09473 4.5,2.54712 0,1.29914 0.84185,1.96917 2.75,2.18873 2.59638,0.29874 2.76658,0.6318 3.04679,5.96202 0.3383,6.43534 1.28246,7.11995 8.09996,5.87328 2.24386,-0.41032 5.24887,-0.52254 6.67782,-0.24938 2.33511,0.44639 2.53569,0.82925 1.98165,3.78251 l -0.61643,3.28586 5.13707,0.83106 5.13707,0.83107 -0.15509,14.35637 -0.15509,14.35636 14.79813,-0.72304 C 282.84084,454.09201 289.725,453.55715 290,453.30109 290.50683,452.82918 291.62049,332.236 291.86591,251.25 L 292,207 h 18.38758 18.38758 l 0.58766,24.25 c 0.32321,13.3375 0.805,68.06871 1.07065,121.6249 0.26566,53.5562 0.67942,97.57133 0.91949,97.81139 0.24006,0.24007 2.95886,0.69682 6.04176,1.015 3.5172,0.36301 5.60528,1.04532 5.60528,1.83162 0,1.52309 2.49415,2.59843 4.36324,1.8812 C 349.07467,454.75737 350,446.37023 350,431.51479 v -11.19184 l 4.75,-5.52757 c 2.6125,-3.04017 5.5085,-6.02353 6.43555,-6.6297 2.42686,-1.58684 23.36621,-2.55887 36.90072,-1.71298 l 11.58627,0.72414 6.66373,8.89646 L 423,424.96975 V 440.48488 456 l 19.75,0.011 c 10.8625,0.006 21.41891,0.28691 23.4587,0.62414 l 3.70869,0.61313 0.29131,7.12586 c 0.25974,6.35388 0.51762,7.15819 2.38037,7.42432 2.04986,0.29286 2.10149,-0.12785 2.75,-22.4116 C 475.70258,436.89632 476,412.29693 476,394.72155 v -31.95524 l 86.25,0.6287 c 47.4375,0.34579 92.18733,0.89312 99.44406,1.2163 l 13.19406,0.58759 0.30594,3.15055 c 0.2771,2.85358 0.65942,3.17981 4.05594,3.46092 2.87632,0.23805 3.75,0.7432 3.75,2.16821 0,3.76207 1.15541,5.02142 4.60699,5.02142 3.18983,0 3.39301,0.20292 3.39301,3.38871 0,3.06081 0.32836,3.45031 3.39346,4.02533 2.90256,0.54452 3.48776,1.13926 4.04531,4.11129 0.53218,2.83674 1.09902,3.47467 3.08749,3.47467 2.40601,0 2.84079,0.76521 3.69312,6.5 0.22512,1.51467 1.19163,2.0745 3.98293,2.30703 3.47426,0.28941 3.71766,0.11733 4.24335,-3 0.30673,-1.81887 1.00381,-41.5164 1.54907,-88.21675 0.54526,-46.70035 1.20416,-85.1225 1.46423,-85.38257 0.63392,-0.63393 15.97091,-0.3382 21.24578,0.40966 4.06042,0.57568 4.22187,0.73834 4.70396,4.73939 0.27458,2.27878 0.73123,39.88321 1.01479,83.56539 0.40866,62.95443 0.78106,79.60646 1.79604,80.31106 1.23153,0.85494 18.63913,0.24147 19.57028,-0.68969 0.24997,-0.24996 0.86383,-23.76201 1.36414,-52.249 1.47402,-83.92799 2.30021,-115.08409 3.07224,-115.85505 0.88771,-0.88648 25.56985,-0.97677 26.44986,-0.0968 0.34563,0.34564 0.54343,4.34742 0.43954,8.89286 -1.04738,45.82663 -2.76952,158.43149 -2.43192,159.01443 0.2389,0.4125 2.16825,0.75 4.28745,0.75 3.70758,0 3.87828,0.1491 4.52017,3.94844 0.65556,3.88022 0.74771,3.95366 5.33274,4.25 4.31593,0.27896 4.70393,0.52643 5.17634,3.30156 0.4811,2.8262 0.80756,3.01727 5.63504,3.29809 l 5.12435,0.2981 0.63194,3.9519 c 0.56172,3.51278 0.94353,3.95191 3.43612,3.95191 1.95691,0 3.75651,1.07568 5.95609,3.56014 2.46163,2.78045 5.14264,4.22779 12.2419,6.60876 4.9995,1.67675 9.40144,2.7376 9.78209,2.35746 0.38066,-0.38015 0.9171,-11.79159 1.1921,-25.35877 l 0.5,-24.66759 8.10649,-0.28812 8.10648,-0.28813 0.64497,-7.63 c 0.35474,-4.1965 0.82334,-7.80836 1.04133,-8.02635 0.63276,-0.63276 40.73091,-0.38216 56.35073,0.35217 l 14.25,0.66994 v 3.15524 c 0,1.73539 0.42789,3.58314 0.95088,4.10613 0.59471,0.59471 0.60364,2.44881 0.0239,4.95 -0.50986,2.19951 -0.93775,10.37948 -0.95087,18.17769 -0.0267,15.89541 0.50708,17.32143 6.48421,17.32143 3.06571,0 3.3931,0.28925 3.67857,3.25 0.31257,3.24182 0.32973,3.25126 6.81336,3.75 6.14212,0.47247 6.48176,0.62985 6.16879,2.85835 -0.18217,1.29709 -0.051,3.47461 0.29137,4.83893 0.58667,2.33747 0.98079,2.46882 6.83121,2.27663 C 986.01504,429.65448 986,429.64979 986,433 c 0,2.8286 0.22639,3 3.96247,3 h 3.96248 l 0.28752,-9.25 0.28753,-9.25 3.37287,0.27047 c 4.49083,0.36012 6.38683,-1.31137 5.59213,-4.92981 -0.6082,-2.76911 -0.5181,-2.84066 3.5772,-2.84066 h 4.2011 l -0.7433,-55 -0.7433,-55 h 2.9821 c 1.6401,0 5.0164,-0.27884 7.5029,-0.61965 l 4.5208,-0.61965 0.7436,56.03178 0.7436,56.03179 3.3099,0.62094 c 2.4165,0.45333 3.3951,1.21939 3.6252,2.83787 0.4385,3.08427 6.7075,3.84464 7.4758,0.90675 0.4179,-1.59783 1.7289,-2.06833 7.2908,-2.61638 l 6.7812,-0.66821 0.625,-5.20262 c 0.3438,-2.86144 0.6289,-7.79012 0.6337,-10.95262 l 0.01,-5.75 h 7 7 l 0.072,-3.75 c 0.04,-2.0625 0.4041,-29.95184 0.8096,-61.97631 0.4055,-32.02447 1.0595,-58.54851 1.4533,-58.94231 0.9214,-0.92138 23.3886,-0.94078 24.3084,-0.021 0.8122,0.81219 0.5572,115.68169 -0.2671,120.32631 l -0.5567,3.13671 8.9388,0.70748 8.9388,0.70748 0.6396,14.06083 c 0.3518,7.73346 0.8417,14.26295 1.0888,14.50998 0.247,0.24703 1.7147,0.03 3.2616,-0.48232 2.2861,-0.75713 2.8694,-1.59969 3.1168,-4.50173 0.2105,-2.47063 0.8734,-3.7191 2.1523,-4.05354 1.7481,-0.45714 1.8195,-1.69312 1.3196,-22.85244 l -0.5284,-22.36916 7.0289,-6.75 c 5.9001,-5.66608 7.5819,-6.75 10.4728,-6.75 h 3.4439 l -0.097,-6.22201 -0.097,-6.22201 5,-0.81294 c 2.75,-0.44712 14.5267,-0.68472 26.1705,-0.52799 l 21.1705,0.28495 0.4259,2.88349 c 0.2343,1.58592 0.1575,4.17796 -0.1705,5.76009 -0.328,1.58213 -0.308,11.98456 0.045,23.11651 0.3524,11.13195 0.6931,31.71491 0.7571,45.73991 0.064,14.025 0.4031,28.5375 0.7537,32.25 l 0.6375,6.75 h 4.3554 c 4.081,0 4.3564,0.17328 4.3707,2.75 0.02,3.6306 0.9656,4.95612 4.0949,5.74151 2.5332,0.63581 2.6044,0.51361 3.2399,-5.5674 0.3575,-3.41962 0.6499,-9.69032 0.6499,-13.93488 v -7.71738 l 4.6396,-0.63593 c 2.5517,-0.34975 6.3767,-0.63592 8.5,-0.63592 2.399,0 3.8765,-0.47319 3.9028,-1.25 0.1912,-5.63183 -0.1443,-43.52801 -0.6903,-78 l -0.6614,-41.75 h 12.4991 12.4991 l 0.6519,14.25 c 0.3585,7.8375 0.6574,32.925 0.6642,55.75 0.01,22.825 0.2962,43.8625 0.643,46.75 l 0.6306,5.25 h 6.2248 6.2248 l 0.6359,4.63957 c 0.3497,2.55177 0.6359,7.22428 0.6359,10.38337 0,6.50891 0.563,6.93815 9.1334,6.96341 3.7859,0.0111 4.729,0.37943 5.1563,2.01365 0.7895,3.01883 6.4546,2.81859 6.8907,-0.24357 0.229,-1.60775 1.1698,-2.38868 3.3196,-2.75561 2.951,-0.50369 3.0101,-0.63437 3.6193,-8.00643 0.3406,-4.12192 0.6781,-28.49439 0.75,-54.16106 0.082,-29.44245 0.4922,-46.78969 1.1101,-47 0.5386,-0.18333 3.976,-0.17967 7.6386,0.008 l 6.6592,0.34147 -0.7352,53.30432 -0.7352,53.30432 3.8535,0.65104 c 3.5358,0.59736 3.8529,0.9151 3.8466,3.85421 -0.01,3.11635 0.1083,3.20084 4.2431,3.11687 l 4.25,-0.0863 0.011,5.08631 c 0.01,2.79747 0.2899,6.77381 0.6308,8.83631 0.5691,3.4428 0.8879,3.75 3.8912,3.75 2.7229,0 3.4436,-0.49422 4.2989,-2.94771 l 1.0276,-2.9477 6.9284,0.58085 c 6.8471,0.57404 6.9362,0.54995 7.5893,-2.05229 0.3635,-1.44823 0.3842,-3.73556 0.046,-5.08295 -0.5987,-2.38566 -0.4489,-2.45765 5.7248,-2.75 6.1786,-0.29258 6.3526,-0.37637 6.8509,-3.3002 0.4626,-2.714 0.9399,-3.04767 5.0062,-3.5 l 4.4949,-0.5 0.2764,-15.9548 c 0.163,-9.40379 -0.1579,-17.20084 -0.7814,-18.9895 -0.7233,-2.07468 -0.7316,-3.14349 -0.026,-3.37854 0.5673,-0.18911 1.0315,-2.10633 1.0315,-4.26049 v -3.91667 l 25.25,-0.21169 c 13.8875,-0.11642 28.85,-0.27096 33.25,-0.34341 11.9775,-0.19722 11.5,-0.53447 11.5,8.12249 v 7.43261 h 7.8834 c 7.33,0 7.9257,0.15793 8.4863,2.25 0.3317,1.2375 0.6091,12.45 0.6166,24.91667 0.01,17.18721 0.3159,22.78859 1.2637,23.17105 1,0.40351 1,0.52017 0,0.58333 -0.8625,0.0545 -1.25,2.07596 -1.25,6.52015 v 6.4412 l 12.0019,0.3088 c 10.1638,0.26151 11.9908,0.0791 11.9297,-1.1912 -0.1183,-2.45961 -1.4416,-5.15605 -2.4706,-5.03439 -0.5286,0.0625 -1.1057,-0.81089 -1.2825,-1.94083 -0.185,-1.18211 -0.8219,-1.80513 -1.5,-1.46728 -0.6482,0.32294 0.059,-0.47479 1.5715,-1.77273 3.233,-2.77435 3.4933,-4.83947 0.8205,-6.50864 -1.5776,-0.98529 -3.2572,-0.75337 -9.2122,1.27205 -4.0055,1.36236 -7.6672,2.34886 -8.1371,2.19222 -0.4699,-0.15663 3.0006,-1.54022 7.7122,-3.07462 5.4905,-1.78804 8.5666,-3.30618 8.5666,-4.2278 0,-0.79089 0.675,-1.43798 1.5,-1.43798 0.825,0 1.5,-0.66968 1.5,-1.48818 0,-0.96294 1.4118,-1.71394 4,-2.12781 3.717,-0.59437 4,-0.87007 4,-3.89659 0,-3.19788 0.1,-3.26944 5.5,-3.94415 5.2579,-0.65694 5.5,-0.81604 5.5,-3.61523 0,-2.80019 0.195,-2.92804 4.4648,-2.92804 4.7307,0 6.5352,-1.63861 6.5352,-5.93426 0,-1.7339 0.6254,-2.06574 3.893,-2.06574 2.2059,0 4.0895,-0.54171 4.3465,-1.25 0.2494,-0.6875 -0.1214,-30.5 -0.8239,-66.25 -1.8808,-95.71403 -1.8771,-95.37194 -1.0284,-96.21861 0.8462,-0.84413 25.1251,-1.10747 25.9437,-0.28139 0.2725,0.275 0.9837,31.325 1.5804,69 0.5967,37.675 1.3536,74.40186 1.682,81.61525 l 0.5972,13.11525 6.7956,0.63159 c 3.7375,0.34737 8.1489,0.36092 9.8029,0.0301 l 3.0073,-0.60146 0.5743,-16.14537 c 0.3159,-8.87995 0.796,-45.56717 1.067,-81.52715 0.2709,-35.95999 0.6208,-65.49755 0.7775,-65.63903 0.1567,-0.14148 5.9099,-0.41967 12.7849,-0.61821 l 12.5,-0.36098 0.7505,70.5 c 0.4128,38.775 1.0227,77.3625 1.3553,85.75 l 0.6048,15.25 h 3.7669 c 3.6214,0 3.7916,-0.15445 4.4065,-4 0.4696,-2.93693 1.1149,-4 2.4278,-4 2.4403,0 4.1882,-1.94262 4.1882,-4.65469 0,-1.78505 0.729,-2.39145 3.5,-2.91129 3.1823,-0.59699 3.5,-0.96423 3.5,-4.04531 0,-3.20614 0.1886,-3.38871 3.5,-3.38871 2.9855,0 3.5,-0.3381 3.5,-2.3 0,-3.07364 1.7994,-4.7 5.2,-4.7 2.432,0 2.8,-0.38657 2.8,-2.94098 0,-1.61754 0.3375,-3.1388 0.75,-3.38056 0.4125,-0.24177 31.6875,-0.7672 69.5,-1.16763 l 68.75,-0.72804 v 13.3273 13.3273 l 5.779,-5.71869 c 5.1119,-5.05854 6.2448,-5.7187 9.8138,-5.7187 h 4.0349 l -0.064,-7.25 -0.064,-7.25 11,-0.66067 c 6.05,-0.36336 18.9465,-0.40714 28.6589,-0.0973 l 17.6589,0.56338 0.4447,3.02962 c 0.2445,1.66628 0.1706,4.41006 -0.1644,6.09728 -0.335,1.68722 -0.3219,12.96767 0.029,25.06767 0.351,12.1 0.691,30.37469 0.7555,40.61043 0.064,10.23573 0.4035,20.69823 0.7532,23.25 0.5816,4.24326 0.8714,4.63957 3.3918,4.63957 2.4993,0 2.8367,0.44231 3.6237,4.75 0.8638,4.72811 0.8862,4.75 4.8582,4.75 h 3.9904 l 0.6857,-6 c 0.3771,-3.3 1.1542,-47.12709 1.7268,-97.39353 0.5727,-50.26644 1.181,-91.53332 1.3519,-91.70419 0.1708,-0.17086 6.6376,-0.0401 14.3706,0.29067 l 14.06,0.60132 0.6525,18.01317 c 0.3589,9.90725 0.7144,40.77854 0.79,68.60287 0.076,27.82433 0.4132,61.61469 0.75,75.08969 l 0.6125,24.5 4.25,0.3075 4.25,0.3075 v 282.9425 282.94247 h -960 -960 V 723.15908 Z M 856.5,439.0523 v -6.44771 l -10,-3.19015 C 841,427.65986 836.35,426.62383 836.16667,427.11215 835.98333,427.60047 835.23333,428 834.5,428 c -0.73333,0 -1.52954,0.5625 -1.76936,1.25 -0.57528,1.64922 0.23578,3.75 1.44778,3.75 0.53044,0 1.63944,0.675 2.46444,1.5 0.825,0.825 1.01785,1.5 0.42857,1.5 -0.58929,0 -1.07143,0.9 -1.07143,2 0,1.1 -0.62686,2 -1.39301,2 -1.43664,0 -2.60699,2.0707 -2.60699,4.61257 0,1.20174 2.09025,1.40108 12.25,1.16821 L 856.5,445.5 Z M 1845.3912,428.76205 1844.5,422.5 l -6.9009,-0.29913 c -3.9024,-0.16916 -7.3567,0.15672 -7.95,0.75 -0.7321,0.73217 -0.2908,1.04913 1.4609,1.04913 1.971,0 3.4632,1.40334 6.95,6.53604 2.442,3.59482 4.89,7.44646 5.44,8.55919 0.9326,1.88688 1.06,1.8179 1.8912,-1.02398 0.5216,-1.78343 0.5216,-5.64413 0,-9.3092 z M 1186,361.125 c 0,-9.00017 -0.7757,-10.88001 -4.6778,-11.33555 -1.9067,-0.22259 -5.3467,-0.13767 -7.6444,0.18873 -4.0841,0.58013 -4.1105,0.60841 -1.1778,1.26139 2.3201,0.51658 4.0198,2.26236 7.5,7.7035 2.475,3.86955 4.8375,7.04036 5.25,7.04624 0.4125,0.006 0.75,-2.18306 0.75,-4.86431 z"
       id="path850" />
  </g>
</svg>
