<?xml version="1.0" encoding="UTF-8" standalone="no"?>
<!-- Uploaded to: SVG Repo, www.svgrepo.com, Generator: SVG Repo Mixer Tools -->

<svg
   height="800px"
   width="800px"
   version="1.1"
   id="Layer_1"
   viewBox="0 0 365.467 365.467"
   xml:space="preserve"
   sodipodi:docname="paperclip.svg"
   inkscape:version="1.1.1 (3bf5ae0d25, 2021-09-20)"
   xmlns:inkscape="http://www.inkscape.org/namespaces/inkscape"
   xmlns:sodipodi="http://sodipodi.sourceforge.net/DTD/sodipodi-0.dtd"
   xmlns="http://www.w3.org/2000/svg"
   xmlns:svg="http://www.w3.org/2000/svg"><defs
   id="defs7" /><sodipodi:namedview
   id="namedview5"
   pagecolor="#505050"
   bordercolor="#eeeeee"
   borderopacity="1"
   inkscape:pageshadow="0"
   inkscape:pageopacity="0"
   inkscape:pagecheckerboard="0"
   showgrid="false"
   inkscape:zoom="0.73539105"
   inkscape:cx="583.36309"
   inkscape:cy="132.58252"
   inkscape:window-width="1920"
   inkscape:window-height="1017"
   inkscape:window-x="-8"
   inkscape:window-y="-8"
   inkscape:window-maximized="1"
   inkscape:current-layer="Layer_1" />
<path
   style="fill:#5c6670"
   d="M 314.85,123.681 198.31,325.534 C 176.283,363.687 127.322,376.806 89.169,354.778 51.017,332.751 37.898,283.791 59.925,245.638 l 43.00263,-75.53766 c 47.96428,-82.020489 0,0 47.96428,-82.020489 L 182.935,32.58 c 17.972,-31.128 57.917,-41.832 89.046,-23.86 16.2153,9.362034 26.88832,12.883928 30.23137,29.197822 l -22.79689,1.423006 c 0,0 -8.28916,-7.351542 -17.72348,-12.798828 -21.301,-12.298 -48.636,-4.974 -60.934,16.327 L 170.57002,95.155983 C 118.54353,185.26828 116.92366,187.68444 116.92366,187.68444 L 77.748,255.928 c -16.354,28.325 -6.614,64.673 21.711,81.027 28.325,16.354 64.674,6.614 81.027,-21.711 l 116.54,-201.852 c 2.841,-4.922 9.135,-6.608 14.056,-3.767 4.923,2.841 6.609,9.134 3.768,14.056 z"
   id="path2"
   sodipodi:nodetypes="ccccccccccccsccscccc" />
</svg>
