<?xml version="1.0" encoding="UTF-8" standalone="no"?>
<svg
   xmlns:dc="http://purl.org/dc/elements/1.1/"
   xmlns:cc="http://creativecommons.org/ns#"
   xmlns:rdf="http://www.w3.org/1999/02/22-rdf-syntax-ns#"
   xmlns:svg="http://www.w3.org/2000/svg"
   xmlns="http://www.w3.org/2000/svg"
   xmlns:sodipodi="http://sodipodi.sourceforge.net/DTD/sodipodi-0.dtd"
   xmlns:inkscape="http://www.inkscape.org/namespaces/inkscape"
   id="SVGRoot"
   version="1.1"
   viewBox="0 0 800 800"
   height="800px"
   width="800px"
   inkscape:version="1.0 (4035a4fb49, 2020-05-01)"
   sodipodi:docname="ea tales from the front.svg">
  <defs
     id="defs18">
    <marker
       inkscape:stockid="ExperimentalArrow"
       orient="auto-start-reverse"
       refY="3.0"
       refX="5.0"
       id="ExperimentalArrow"
       inkscape:isstock="true">
      <path
         id="path1396"
         d="m 10,3 -10,3 0,-6 z"
         style="fill:#ffffff;stroke:#000000;stroke-opacity:1;fill-opacity:0" />
    </marker>
    <marker
       inkscape:stockid="Arrow1Lstart"
       orient="auto"
       refY="0.0"
       refX="0.0"
       id="Arrow1Lstart"
       style="overflow:visible"
       inkscape:isstock="true">
      <path
         id="path1143"
         d="M 0.0,0.0 L 5.0,-5.0 L -12.5,0.0 L 5.0,5.0 L 0.0,0.0 z "
         style="fill-rule:evenodd;stroke:#000000;stroke-width:1pt;stroke-opacity:1;fill:#ffffff;fill-opacity:0"
         transform="scale(0.8) translate(12.5,0)" />
    </marker>
    <rect
       x="82.526126"
       y="-42.181303"
       width="583.86817"
       height="145.46197"
       id="rect224" />
    <rect
       x="78.791899"
       y="119.198"
       width="815.19311"
       height="226.27417"
       id="rect39" />
    <rect
       x="45.456865"
       y="101.01525"
       width="721.24892"
       height="262.63966"
       id="rect33" />
  </defs>
  <sodipodi:namedview
     id="base"
     pagecolor="#ffffff"
     bordercolor="#666666"
     borderopacity="1.0"
     inkscape:pageopacity="0.0"
     inkscape:pageshadow="2"
     inkscape:zoom="0.35"
     inkscape:cx="414.10887"
     inkscape:cy="813.60048"
     inkscape:document-units="px"
     inkscape:current-layer="text37"
     inkscape:document-rotation="0"
     showgrid="false"
     inkscape:window-width="1920"
     inkscape:window-height="1017"
     inkscape:window-x="-8"
     inkscape:window-y="-8"
     inkscape:window-maximized="1"
     inkscape:snap-object-midpoints="true" />
  <metadata
     id="metadata21">
    <rdf:RDF>
      <cc:Work
         rdf:about="">
        <dc:format>image/svg+xml</dc:format>
        <dc:type
           rdf:resource="http://purl.org/dc/dcmitype/StillImage" />
        <dc:title />
      </cc:Work>
    </rdf:RDF>
  </metadata>
  <g
     inkscape:label="Warstwa 1"
     inkscape:groupmode="layer"
     id="layer1">
    <text
       xml:space="preserve"
       id="text31"
       style="fill:black;fill-opacity:1;line-height:1.25;stroke:none;font-family:'Enchanted Land';font-style:normal;font-weight:normal;font-size:40px;white-space:pre;shape-inside:url(#rect33);-inkscape-font-specification:'Enchanted Land';font-stretch:normal;font-variant:normal;" />
    <g
       aria-label="Engineered Adventures"
       transform="translate(-62.323075,75.516337)"
       id="text37"
       style="font-style:normal;font-variant:normal;font-weight:normal;font-stretch:normal;font-size:122.667px;line-height:1.25;font-family:'Enchanted Land';-inkscape-font-specification:'Enchanted Land';white-space:pre;shape-inside:url(#rect39);fill:#000000;fill-opacity:1;stroke:none">
      <path
         d="m 112.39267,200.58653 0.11979,1.4974 c 0.15973,1.71702 0.23959,4.21269 0.23959,7.487 v 2.09636 c -0.23959,3.63369 -1.97657,6.64846 -5.21096,9.0443 2.19619,-0.31945 4.4922,-0.47917 6.88804,-0.47917 7.22745,0 15.27348,1.5573 24.13809,4.67189 -8.10593,6.908 -12.29865,10.362 -12.57816,10.362 -8.06599,-3.07466 -16.97053,-4.61199 -26.713614,-4.61199 -5.230917,0 -10.681452,0.43924 -16.351607,1.31772 4.152789,-4.35245 9.942736,-7.78649 17.369841,-10.30212 0.31945,-1.23785 0.47917,-2.43577 0.47917,-3.59376 0,-0.63889 -0.0399,-1.25781 -0.1198,-1.85677 l -2.695316,-24.25788 c -0.159723,-1.07813 -0.239584,-2.21615 -0.239584,-3.41407 0,-1.75695 0.179688,-3.65366 0.539064,-5.69012 0.519099,-2.95487 1.437504,-5.61026 2.755216,-7.96617 1.59723,-2.95487 3.77345,-5.35071 6.52866,-7.18752 l -7.546892,-1.07813 c -2.515632,-0.43923 -6.049496,-1.91667 -10.601591,-4.4323 -4.512165,-2.51563 -8.046029,-6.84811 -10.601591,-12.99743 0.239584,0.55903 1.936637,1.63715 5.091159,3.23438 3.154523,1.5573 6.927971,2.61546 11.320344,3.17449 1.717018,0.23959 6.728311,0.5191 15.033891,0.83854 8.34551,0.27952 14.5148,1.37761 18.50787,3.29428 1.97942,-0.0476 14.59104,4.50672 8.28128,15.35942 -2.64708,-7.63543 -9.09986,-5.23699 -23.55476,-6.5547 -1.71702,3.11459 -2.57553,7.32727 -2.57553,12.63805 0,0.95833 0.02,1.93663 0.0599,2.9349 l 0.53906,6.28908 0.11979,1.5573 2.45574,0.47917 c 3.27431,0.71875 5.71008,1.07813 7.30731,1.07813 0.39931,0 0.75868,-0.02 1.07813,-0.0599 1.99653,-0.27951 3.35417,-1.19792 4.07292,-2.75522 0.39931,-0.79861 0.59896,-1.55729 0.59896,-2.27604 1.67709,2.03646 2.51564,3.9731 2.51564,5.80991 0,1.39757 -0.49913,2.73525 -1.4974,4.01303 -1.91667,2.39584 -4.35245,3.59376 -7.30732,3.59376 -0.67882,0 -1.39757,-0.0599 -2.15625,-0.17969 -3.35417,-0.5191 -5.45053,-0.87848 -6.28908,-1.07813 z"
         style="font-style:normal;font-variant:normal;font-weight:normal;font-stretch:normal;font-size:122.667px;line-height:1.25;font-family:'Enchanted Land';-inkscape-font-specification:'Enchanted Land';white-space:pre;shape-inside:url(#rect39);fill:#000000;fill-opacity:1;stroke:none"
         id="path177"
         sodipodi:nodetypes="ccsccsccsccsccsccccccccccccsccccscccscscc" />
      <path
         d="m 153.42143,215.44074 q 0,5.15106 4.31251,7.72658 l -8.86461,6.58856 -0.0599,-0.0599 h -0.0599 q -6.22918,-4.67189 -6.22918,-11.79951 v -25.57559 q 0,-3.41408 -2.15626,-5.86981 -1.07813,-1.25782 -2.15626,-1.85678 l 8.86461,-6.58856 h 0.0599 l 0.17969,0.11979 0.23958,0.1198 0.35938,0.17968 q 0.41927,0.29948 0.89844,0.59896 0.53906,0.41928 1.01823,0.83855 1.25781,1.07813 2.09636,2.39584 1.07812,1.61719 1.4974,3.47397 l 10.60159,-7.90628 q 5.27085,2.03647 7.66669,5.92971 1.91667,3.11459 1.91667,7.12762 v 24.55736 q 0,5.15106 4.31251,7.72658 l -8.86461,6.58856 -0.0599,-0.0599 h -0.0599 q -6.22918,-4.67189 -6.22918,-11.79951 v -27.13289 q 0,-2.51563 -3.41408,-4.5521 l -5.8698,4.25262 z"
         style="font-style:normal;font-variant:normal;font-weight:normal;font-stretch:normal;font-size:122.667px;line-height:1.25;font-family:'Enchanted Land';-inkscape-font-specification:'Enchanted Land';white-space:pre;shape-inside:url(#rect39);fill:#000000;fill-opacity:1;stroke:none"
         id="path179" />
      <path
         d="M 202.89552,217.11783 V 198.1308 q -0.0599,-4.07293 -0.0599,-6.82815 0,-2.21615 -0.95834,-4.13282 -0.83854,-1.01823 -2.39584,-1.91667 -5.75001,4.37241 -5.75001,9.28388 v 22.16152 q 0,2.57552 3.47396,4.61199 z m 11.02087,-28.80998 q 0,0.23959 0.0599,23.11986 0.0599,22.88027 0.0599,23.47923 0,7.00783 -6.46877,12.81774 -5.51043,4.97137 -11.08076,4.97137 -0.95834,0 -1.85678,-0.11979 -4.73178,-0.71875 -8.02606,-4.67189 -2.21615,-2.69532 -2.21615,-5.39064 0,-1.79688 0.95834,-3.59376 1.55729,-2.9948 4.73178,-2.9948 h 0.35938 q 0.83854,0 1.67708,0.23958 0.29948,0.1198 0.59896,0.23959 l 0.17969,0.0599 h 0.0599 q -2.15626,1.43751 -2.39584,3.47397 v 0.41927 q 0,1.6172 1.19792,2.81512 1.31771,1.31771 3.23438,1.31771 h 0.29948 q 2.39584,-0.11979 4.5521,-2.33595 3.05469,-3.11459 3.05469,-7.3672 V 222.0293 l -10.54169,7.78648 q -8.14586,-3.23438 -9.46357,-10.66149 h -0.0599 q -0.23958,-1.19792 -0.29948,-2.81511 h 0.0599 v -21.08339 q 0,-3.23438 3.35418,-6.82814 2.75521,-2.93491 7.487,-5.92971 5.45053,-3.41407 10.90107,-5.69012 0.95833,0.35938 1.91667,0.89844 6.88804,3.53387 7.66669,10.60159 z"
         style="font-style:normal;font-variant:normal;font-weight:normal;font-stretch:normal;font-size:122.667px;line-height:1.25;font-family:'Enchanted Land';-inkscape-font-specification:'Enchanted Land';white-space:pre;shape-inside:url(#rect39);fill:#000000;fill-opacity:1;stroke:none"
         id="path181" />
      <path
         d="m 234.4607,215.44074 q 0,3.41407 2.15626,5.86981 1.07813,1.25781 2.15626,1.85677 l -8.92451,6.58856 -0.0599,-0.0599 h -0.0599 l -0.11979,-0.0599 -0.29948,-0.17969 -0.41927,-0.23958 q -0.53907,-0.35938 -1.01824,-0.71875 -0.59896,-0.47917 -1.13802,-1.01823 -1.4375,-1.31772 -2.21615,-2.93491 -1.01823,-1.97657 -1.01823,-4.25261 v -27.97143 q 0,-3.41408 -2.15626,-5.86981 -1.07813,-1.25782 -2.15625,-1.85678 l 8.8646,-6.58856 h 0.0599 l 0.11979,0.0599 0.11979,0.0599 0.29948,0.17969 0.41927,0.23959 q 0.47917,0.29948 1.01824,0.71875 0.59896,0.47917 1.13802,0.95833 1.4375,1.37761 2.21615,2.93491 1.01823,2.03646 1.01823,4.31251 z m -5.9297,-51.86993 q 0.47917,0.77865 1.13802,1.4974 0.89844,0.95833 1.91668,1.61719 1.91667,1.13802 4.19272,1.13802 1.25781,0 2.63542,-0.35937 -1.97657,3.95313 -5.27085,6.22918 -2.45573,1.67709 -4.91147,1.67709 -4.31251,0 -8.68492,-5.15106 z"
         style="font-style:normal;font-variant:normal;font-weight:normal;font-stretch:normal;font-size:122.667px;line-height:1.25;font-family:'Enchanted Land';-inkscape-font-specification:'Enchanted Land';white-space:pre;shape-inside:url(#rect39);fill:#000000;fill-opacity:1;stroke:none"
         id="path183" />
      <path
         d="m 255.4842,215.44074 q 0,5.15106 4.31251,7.72658 l -8.86461,6.58856 -0.0599,-0.0599 h -0.0599 q -6.22918,-4.67189 -6.22918,-11.79951 v -25.57559 q 0,-3.41408 -2.15626,-5.86981 -1.07813,-1.25782 -2.15626,-1.85678 l 8.86461,-6.58856 h 0.0599 l 0.17969,0.11979 0.23958,0.1198 0.35938,0.17968 q 0.41927,0.29948 0.89844,0.59896 0.53906,0.41928 1.01823,0.83855 1.25781,1.07813 2.09636,2.39584 1.07813,1.61719 1.4974,3.47397 l 10.60159,-7.90628 q 5.27085,2.03647 7.66669,5.92971 1.91667,3.11459 1.91667,7.12762 v 24.55736 q 0,5.15106 4.31251,7.72658 l -8.86461,6.58856 -0.0599,-0.0599 h -0.0599 q -6.22918,-4.67189 -6.22918,-11.79951 v -27.13289 q 0,-2.51563 -3.41407,-4.5521 l -5.86981,4.25262 z"
         style="font-style:normal;font-variant:normal;font-weight:normal;font-stretch:normal;font-size:122.667px;line-height:1.25;font-family:'Enchanted Land';-inkscape-font-specification:'Enchanted Land';white-space:pre;shape-inside:url(#rect39);fill:#000000;fill-opacity:1;stroke:none"
         id="path185" />
      <path
         d="m 294.83587,184.83389 q -2.69532,4.61199 -2.69532,12.09899 0,3.23438 0.53906,7.06773 l 10.30212,-7.90628 z m -1.37761,23.59902 q 0.59896,2.09636 1.5573,4.01303 1.4375,2.63542 3.41407,4.4922 4.25262,3.89324 10.72138,3.89324 2.03647,0 4.31251,-0.41927 l -12.21878,9.34377 q -0.77865,-0.0599 -1.61719,-0.17968 -1.07813,-0.17969 -2.15626,-0.47917 -2.875,-0.83855 -5.27084,-2.51563 -6.82815,-4.79168 -8.68492,-15.63286 -0.59896,-3.23438 -0.59896,-6.64846 0,-4.01303 0.83854,-8.20575 3.11459,-15.57296 17.30994,-19.28651 l 11.9792,16.59119 -0.29948,0.23959 z"
         style="font-style:normal;font-variant:normal;font-weight:normal;font-stretch:normal;font-size:122.667px;line-height:1.25;font-family:'Enchanted Land';-inkscape-font-specification:'Enchanted Land';white-space:pre;shape-inside:url(#rect39);fill:#000000;fill-opacity:1;stroke:none"
         id="path187" />
      <path
         d="m 328.85681,184.83389 q -2.69532,4.61199 -2.69532,12.09899 0,3.23438 0.53906,7.06773 l 10.30211,-7.90628 z m -1.37761,23.59902 q 0.59896,2.09636 1.55729,4.01303 1.43751,2.63542 3.41407,4.4922 4.25262,3.89324 10.72139,3.89324 2.03646,0 4.31251,-0.41927 l -12.21878,9.34377 q -0.77865,-0.0599 -1.6172,-0.17968 -1.07812,-0.17969 -2.15625,-0.47917 -2.87501,-0.83855 -5.27085,-2.51563 -6.82814,-4.79168 -8.68492,-15.63286 -0.59896,-3.23438 -0.59896,-6.64846 0,-4.01303 0.83855,-8.20575 3.11459,-15.57296 17.30994,-19.28651 l 11.9792,16.59119 -0.29948,0.23959 z"
         style="font-style:normal;font-variant:normal;font-weight:normal;font-stretch:normal;font-size:122.667px;line-height:1.25;font-family:'Enchanted Land';-inkscape-font-specification:'Enchanted Land';white-space:pre;shape-inside:url(#rect39);fill:#000000;fill-opacity:1;stroke:none"
         id="path189" />
      <path
         d="m 374.85692,177.82605 q 5.33075,2.09636 7.72659,6.0495 l -9.0443,6.70835 q -0.11979,-2.45573 -3.41407,-4.37241 l -5.80991,4.25262 v 24.85684 q 0,1.85677 0.65885,3.53386 0.53907,1.31771 1.4974,2.39584 1.07813,1.31771 2.15626,1.91667 l -8.9245,6.58856 -0.0599,-0.0599 h -0.0599 l -0.11979,-0.0599 -0.29948,-0.17969 -0.41927,-0.23958 q -0.53906,-0.35938 -1.01823,-0.71875 -0.59896,-0.47917 -1.19792,-1.01823 -1.37761,-1.31772 -2.15626,-2.93491 -1.01823,-1.97657 -1.01823,-4.25261 v -27.97143 q 0,-3.41408 -2.15626,-5.86981 -1.07812,-1.25782 -2.15625,-1.85678 l 8.86461,-6.58856 h 0.0599 l 0.17969,0.11979 0.23958,0.1198 0.35938,0.17968 q 0.41927,0.29948 0.89844,0.59896 0.53906,0.41928 1.01823,0.83855 1.25782,1.07813 2.09636,2.39584 1.07813,1.61719 1.37761,3.47397 z"
         style="font-style:normal;font-variant:normal;font-weight:normal;font-stretch:normal;font-size:122.667px;line-height:1.25;font-family:'Enchanted Land';-inkscape-font-specification:'Enchanted Land';white-space:pre;shape-inside:url(#rect39);fill:#000000;fill-opacity:1;stroke:none"
         id="path191" />
      <path
         d="m 393.78405,184.83389 q -2.69532,4.61199 -2.69532,12.09899 0,3.23438 0.53907,7.06773 l 10.30211,-7.90628 z m -1.37761,23.59902 q 0.59896,2.09636 1.5573,4.01303 1.4375,2.63542 3.41407,4.4922 4.25262,3.89324 10.72138,3.89324 2.03647,0 4.31252,-0.41927 l -12.21879,9.34377 q -0.77865,-0.0599 -1.61719,-0.17968 -1.07813,-0.17969 -2.15625,-0.47917 -2.87501,-0.83855 -5.27085,-2.51563 -6.82815,-4.79168 -8.68492,-15.63286 -0.59896,-3.23438 -0.59896,-6.64846 0,-4.01303 0.83854,-8.20575 3.11459,-15.57296 17.30994,-19.28651 l 11.9792,16.59119 -0.29948,0.23959 z"
         style="font-style:normal;font-variant:normal;font-weight:normal;font-stretch:normal;font-size:122.667px;line-height:1.25;font-family:'Enchanted Land';-inkscape-font-specification:'Enchanted Land';white-space:pre;shape-inside:url(#rect39);fill:#000000;fill-opacity:1;stroke:none"
         id="path193" />
      <path
         d="m 437.32846,190.76359 q 0,-2.57553 -3.47396,-4.5521 -5.75002,4.25262 -5.75002,9.1042 v 21.50266 q 0,2.57553 3.47397,4.55209 l 5.69012,-4.19272 z m 6.28908,38.99229 q -2.09636,-1.19792 -3.59376,-3.53386 -1.55729,-2.15626 -2.21615,-4.61199 l -11.02086,8.14585 q -8.08596,-3.17448 -9.34378,-10.4818 h -0.0599 q -0.23959,-1.19792 -0.29948,-2.75521 h 0.0599 v -20.48443 q 0,-3.17449 3.35418,-6.76825 2.63542,-2.87501 7.36721,-5.80991 4.73178,-2.9948 9.46356,-5.09116 v -7.24742 q 0,-1.91667 -0.65885,-3.53386 -0.53907,-1.25782 -1.4974,-2.39584 -1.07813,-1.19792 -2.15626,-1.79688 l 8.92451,-6.58856 h 0.0599 l 0.0599,0.0599 0.11979,0.0599 0.29948,0.17969 0.41927,0.23958 q 0.53907,0.29948 1.01823,0.71876 0.59896,0.41927 1.13803,0.95833 1.4375,1.37761 2.21615,2.93491 1.01823,2.03646 1.01823,4.31251 v 49.3543 q 0,3.47397 2.09636,5.80991 0.89844,0.95834 2.15626,1.73698 l -8.86461,6.58856 z"
         style="font-style:normal;font-variant:normal;font-weight:normal;font-stretch:normal;font-size:122.667px;line-height:1.25;font-family:'Enchanted Land';-inkscape-font-specification:'Enchanted Land';white-space:pre;shape-inside:url(#rect39);fill:#000000;fill-opacity:1;stroke:none"
         id="path195" />
      <path
         d="m 516.35655,196.12002 c 1.71702,-0.31945 2.91494,-1.23785 3.59376,-2.75522 0.23959,-0.47917 0.39931,-0.99826 0.47917,-1.55729 0.0399,-0.15973 0.0599,-0.31945 0.0599,-0.47917 v -0.29948 l -0.17968,-0.59896 c -1.07813,-7.34725 -3.36119,-19.84562 -7.35426,-28.15119 l -9.61894,31.05211 c 0.95833,0.19965 1.36031,0.35343 4.994,1.47149 2.9948,0.9184 5.33074,1.3776 7.00783,1.3776 0.35937,0 0.69878,-0.02 1.01823,-0.0599 z m 25.99486,30.24748 c 4.35245,6.14932 9.26392,9.98266 14.73442,11.50003 -0.19965,0 -3.16424,-1.36416 -8.51495,0.83203 -1.47743,0.59896 -6.07167,0.2671 -7.46924,0.2671 -3.95313,0 -4.48028,0.81754 -8.27369,-3.73456 -3.31425,-5.15105 -6.92797,-16.17192 -10.84118,-33.06259 -2.15625,1.51737 -4.53213,2.27605 -7.12762,2.27605 -1.9566,0 -4.01303,-0.41927 -6.16929,-1.25782 -2.9948,-1.11805 -5.51043,-1.67708 -7.54689,-1.67708 -1.5573,0 1.03819,-0.59896 0,0 l -8.91745,28.77906 c 2.71529,0.75869 5.4705,2.05643 8.26564,3.89324 l -11.21513,6.42667 c -2.75522,-1.51737 -4.21807,-1.65495 -7.29273,-2.05426 -1.03819,-0.11979 -2.07639,-0.17969 -3.11459,-0.17969 -3.27431,0 -6.54863,0.65886 -9.82294,1.97657 0.87847,-1.59723 2.15625,-3.23438 3.83334,-4.91147 1.47743,-1.47743 3.07466,-2.67535 4.79168,-3.59376 2.11633,-1.19792 4.31251,-1.93664 6.58856,-2.21615 l 22.99301,-69.14897 c -2.19619,-1.43751 -4.65192,-2.15626 -7.36721,-2.15626 -2.63004,-0.0625 -4.17787,0.30121 -7.70428,1.99778 l 0.11979,-0.17968 c 0.11979,-0.15973 0.29948,-0.35938 0.53906,-0.59896 0.59896,-0.67883 1.31771,-1.43751 2.15626,-2.27605 2.55556,-2.43577 2.6487,-3.56995 5.32405,-5.36683 3.71355,-2.51564 2.48006,-1.70215 5.67451,-2.38097 1.19792,-0.27951 2.33594,-0.41927 3.41407,-0.41927 2.59549,0 4.91147,0.73872 6.94794,2.21615 3.71355,2.63543 6.66842,7.04777 8.86461,13.23702 0.75868,2.15625 3.09462,11.99916 7.00783,29.52872 3.91321,17.48963 7.28735,28.25095 10.12242,32.28395 z"
         style="font-style:normal;font-variant:normal;font-weight:normal;font-stretch:normal;font-size:122.667px;line-height:1.25;font-family:'Enchanted Land';-inkscape-font-specification:'Enchanted Land';white-space:pre;shape-inside:url(#rect39);fill:#000000;fill-opacity:1;stroke:none"
         id="path197"
         sodipodi:nodetypes="sccscccccssscccsccscscccccscsccccccccccscccc" />
      <path
         d="m 561.19336,190.76359 q 0,-2.57553 -3.47396,-4.5521 -5.75002,4.25262 -5.75002,9.1042 v 21.50266 q 0,2.57553 3.47397,4.55209 l 5.69012,-4.19272 z m 6.28908,38.99229 q -2.09636,-1.19792 -3.59376,-3.53386 -1.55729,-2.15626 -2.21615,-4.61199 l -11.02086,8.14585 q -8.08596,-3.17448 -9.34378,-10.4818 h -0.0599 q -0.23959,-1.19792 -0.29948,-2.75521 h 0.0599 v -20.48443 q 0,-3.17449 3.35418,-6.76825 2.63542,-2.87501 7.36721,-5.80991 4.73178,-2.9948 9.46356,-5.09116 v -7.24742 q 0,-1.91667 -0.65885,-3.53386 -0.53907,-1.25782 -1.4974,-2.39584 -1.07813,-1.19792 -2.15626,-1.79688 l 8.92451,-6.58856 h 0.0599 l 0.0599,0.0599 0.11979,0.0599 0.29948,0.17969 0.41927,0.23958 q 0.53907,0.29948 1.01823,0.71876 0.59896,0.41927 1.13803,0.95833 1.4375,1.37761 2.21615,2.93491 1.01823,2.03646 1.01823,4.31251 v 49.3543 q 0,3.47397 2.09636,5.80991 0.89844,0.95834 2.15626,1.73698 l -8.86461,6.58856 z"
         style="font-style:normal;font-variant:normal;font-weight:normal;font-stretch:normal;font-size:122.667px;line-height:1.25;font-family:'Enchanted Land';-inkscape-font-specification:'Enchanted Land';white-space:pre;shape-inside:url(#rect39);fill:#000000;fill-opacity:1;stroke:none"
         id="path199" />
      <path
         d="m 596.11273,229.75588 q -5.45053,-2.45573 -9.64325,-6.46876 -4.31252,-4.25262 -4.31252,-7.42711 v -24.73704 q 0,-1.43751 -0.65885,-2.75522 -0.53907,-1.07813 -1.4974,-2.09636 -1.07813,-1.13802 -2.15626,-1.79688 l 8.86461,-6.58856 q 1.91667,1.07813 3.35418,3.11459 1.13802,1.61719 1.91667,3.77345 0.89844,2.45574 1.13802,4.4922 l -0.0599,27.37247 q 0,2.57553 3.47397,4.61199 l 5.75002,-4.31251 q 0,-7.4271 0.0599,-24.73705 0,-3.41407 -2.15625,-5.8698 -1.13803,-1.25782 -2.21615,-1.85678 l 8.9245,-6.58856 0.0599,0.0599 h 0.0599 l 0.11979,0.0599 0.29948,0.17969 0.41928,0.23958 q 0.53906,0.35938 1.01823,0.71876 0.65885,0.47916 1.19792,1.01823 1.37761,1.31771 2.21615,2.9349 0.95834,1.97657 0.95834,4.25262 v 29.70841 z"
         style="font-style:normal;font-variant:normal;font-weight:normal;font-stretch:normal;font-size:122.667px;line-height:1.25;font-family:'Enchanted Land';-inkscape-font-specification:'Enchanted Land';white-space:pre;shape-inside:url(#rect39);fill:#000000;fill-opacity:1;stroke:none"
         id="path201" />
      <path
         d="m 632.17016,184.83389 q -2.69532,4.61199 -2.69532,12.09899 0,3.23438 0.53906,7.06773 l 10.30212,-7.90628 z m -1.37761,23.59902 q 0.59896,2.09636 1.5573,4.01303 1.4375,2.63542 3.41407,4.4922 4.25262,3.89324 10.72138,3.89324 2.03647,0 4.31251,-0.41927 l -12.21878,9.34377 q -0.77865,-0.0599 -1.61719,-0.17968 -1.07813,-0.17969 -2.15626,-0.47917 -2.875,-0.83855 -5.27084,-2.51563 -6.82815,-4.79168 -8.68492,-15.63286 -0.59896,-3.23438 -0.59896,-6.64846 0,-4.01303 0.83854,-8.20575 3.11459,-15.57296 17.30994,-19.28651 l 11.9792,16.59119 -0.29948,0.23959 z"
         style="font-style:normal;font-variant:normal;font-weight:normal;font-stretch:normal;font-size:122.667px;line-height:1.25;font-family:'Enchanted Land';-inkscape-font-specification:'Enchanted Land';white-space:pre;shape-inside:url(#rect39);fill:#000000;fill-opacity:1;stroke:none"
         id="path203" />
      <path
         d="m 667.56869,215.44074 q 0,5.15106 4.31251,7.72658 l -8.86461,6.58856 -0.0599,-0.0599 h -0.0599 q -6.22919,-4.67189 -6.22919,-11.79951 v -25.57559 q 0,-3.41408 -2.15625,-5.86981 -1.07813,-1.25782 -2.15626,-1.85678 l 8.86461,-6.58856 h 0.0599 l 0.17968,0.11979 0.23959,0.1198 0.35937,0.17968 q 0.41928,0.29948 0.89844,0.59896 0.53907,0.41928 1.01824,0.83855 1.25781,1.07813 2.09636,2.39584 1.07812,1.61719 1.4974,3.47397 l 10.60159,-7.90628 q 5.27084,2.03647 7.66668,5.92971 1.91668,3.11459 1.91668,7.12762 v 24.55736 q 0,5.15106 4.31251,7.72658 l -8.86461,6.58856 -0.0599,-0.0599 h -0.0599 q -6.22919,-4.67189 -6.22919,-11.79951 v -27.13289 q 0,-2.51563 -3.41407,-4.5521 l -5.8698,4.25262 z"
         style="font-style:normal;font-variant:normal;font-weight:normal;font-stretch:normal;font-size:122.667px;line-height:1.25;font-family:'Enchanted Land';-inkscape-font-specification:'Enchanted Land';white-space:pre;shape-inside:url(#rect39);fill:#000000;fill-opacity:1;stroke:none"
         id="path205" />
      <path
         d="m 707.75887,183.45628 v 31.98446 q 0,3.41407 2.15626,5.86981 1.07813,1.25781 2.15625,1.85677 l -8.8646,6.58856 -0.0599,-0.0599 h -0.11979 l -0.11979,-0.0599 -0.29948,-0.17969 -0.41928,-0.23958 q -0.47916,-0.35938 -1.01823,-0.71875 -0.59896,-0.47917 -1.13802,-1.01823 -1.43751,-1.31772 -2.21615,-2.93491 -1.01824,-1.97657 -1.01824,-4.25261 v -36.83604 h -4.4323 l 2.39584,-5.63023 h 2.09636 q 0,-3.83334 -0.71875,-5.45053 -0.53907,-1.25782 -1.4974,-2.39584 -1.07813,-1.19792 -2.15626,-1.79688 l 8.92451,-6.58856 h 0.0599 l 0.0599,0.0599 0.11979,0.0599 0.29948,0.17969 0.41927,0.23958 q 0.53907,0.29948 1.01823,0.71876 0.59896,0.41927 1.19792,0.95833 1.37761,1.37761 2.15626,2.93491 1.01823,2.03646 1.01823,4.31251 v 6.76824 h 5.09116 l -2.39584,5.63023 z"
         style="font-style:normal;font-variant:normal;font-weight:normal;font-stretch:normal;font-size:122.667px;line-height:1.25;font-family:'Enchanted Land';-inkscape-font-specification:'Enchanted Land';white-space:pre;shape-inside:url(#rect39);fill:#000000;fill-opacity:1;stroke:none"
         id="path207" />
      <path
         d="m 749.80588,215.26105 q 0,1.85678 0.65886,3.47397 0.53906,1.31771 1.4974,2.39584 1.07813,1.25782 2.15625,1.85678 l -8.8646,6.58856 h -0.0599 l -0.17969,-0.1198 -0.23958,-0.11979 -0.35938,-0.17969 q -0.41927,-0.29948 -0.83854,-0.59896 -0.53907,-0.41927 -1.07813,-0.83854 -1.25782,-1.07813 -2.09636,-2.39584 -1.01823,-1.67709 -1.37761,-3.53386 l -10.72138,7.96616 q -5.21095,-2.03646 -7.66669,-5.9297 -1.91667,-3.11459 -1.91667,-7.12762 v -25.63549 q 0,-1.4375 -0.65886,-2.75522 -0.53906,-1.13802 -1.4974,-2.09636 -1.07812,-1.13802 -2.15625,-1.79688 l 8.86461,-6.58856 q 1.91667,1.07813 3.35417,3.1146 1.13803,1.61719 1.91667,3.77344 0.89844,2.45574 1.13803,4.4922 v 27.67195 q 0,2.51564 3.41407,4.4922 l 5.80991,-4.25261 V 192.1412 q 0,-1.85678 -0.71875,-3.47397 -0.53906,-1.31771 -1.4375,-2.39584 -1.13803,-1.25782 -2.21616,-1.85678 l 8.92451,-6.58856 h 0.0599 l 0.0599,0.0599 0.11979,0.0599 0.29948,0.17968 0.41927,0.23959 q 0.53907,0.35937 1.01823,0.71875 0.65886,0.47917 1.19792,0.95834 1.37761,1.3776 2.21616,2.9948 1.01823,1.97656 1.01823,4.25261 0,2.57553 -0.0599,27.97143 z"
         style="font-style:normal;font-variant:normal;font-weight:normal;font-stretch:normal;font-size:122.667px;line-height:1.25;font-family:'Enchanted Land';-inkscape-font-specification:'Enchanted Land';white-space:pre;shape-inside:url(#rect39);fill:#000000;fill-opacity:1;stroke:none"
         id="path209" />
      <path
         d="m 781.43096,177.82605 q 5.33074,2.09636 7.72658,6.0495 l -9.04429,6.70835 q -0.1198,-2.45573 -3.41408,-4.37241 l -5.80991,4.25262 v 24.85684 q 0,1.85677 0.65886,3.53386 0.53906,1.31771 1.4974,2.39584 1.07813,1.31771 2.15625,1.91667 l -8.9245,6.58856 -0.0599,-0.0599 h -0.0599 l -0.11979,-0.0599 -0.29948,-0.17969 -0.41927,-0.23958 q -0.53907,-0.35938 -1.01824,-0.71875 -0.59896,-0.47917 -1.19792,-1.01823 -1.3776,-1.31772 -2.15625,-2.93491 -1.01823,-1.97657 -1.01823,-4.25261 v -27.97143 q 0,-3.41408 -2.15626,-5.86981 -1.07813,-1.25782 -2.15626,-1.85678 l 8.86461,-6.58856 h 0.0599 l 0.17969,0.11979 0.23958,0.1198 0.35938,0.17968 q 0.41927,0.29948 0.89843,0.59896 0.53907,0.41928 1.01824,0.83855 1.25781,1.07813 2.09636,2.39584 1.07812,1.61719 1.3776,3.47397 z"
         style="font-style:normal;font-variant:normal;font-weight:normal;font-stretch:normal;font-size:122.667px;line-height:1.25;font-family:'Enchanted Land';-inkscape-font-specification:'Enchanted Land';white-space:pre;shape-inside:url(#rect39);fill:#000000;fill-opacity:1;stroke:none"
         id="path211" />
      <path
         d="m 800.35809,184.83389 q -2.69532,4.61199 -2.69532,12.09899 0,3.23438 0.53906,7.06773 l 10.30211,-7.90628 z m -1.37761,23.59902 q 0.59896,2.09636 1.55729,4.01303 1.43751,2.63542 3.41408,4.4922 4.25261,3.89324 10.72138,3.89324 2.03646,0 4.31251,-0.41927 l -12.21878,9.34377 q -0.77865,-0.0599 -1.61719,-0.17968 -1.07813,-0.17969 -2.15626,-0.47917 -2.87501,-0.83855 -5.27085,-2.51563 -6.82814,-4.79168 -8.68492,-15.63286 -0.59896,-3.23438 -0.59896,-6.64846 0,-4.01303 0.83855,-8.20575 3.11459,-15.57296 17.30994,-19.28651 l 11.9792,16.59119 -0.29948,0.23959 z"
         style="font-style:normal;font-variant:normal;font-weight:normal;font-stretch:normal;font-size:122.667px;line-height:1.25;font-family:'Enchanted Land';-inkscape-font-specification:'Enchanted Land';white-space:pre;shape-inside:url(#rect39);fill:#000000;fill-opacity:1;stroke:none"
         id="path213" />
      <path
         d="m 842.28529,198.96934 q 8.26565,4.73179 8.9844,9.34378 0.47917,2.75521 0.47917,4.97136 0,0.95834 -0.11979,1.85678 -0.47917,3.77345 -2.69532,6.0495 -0.35938,0.29948 -9.64326,7.30731 -1.73698,1.25781 -3.83334,1.25781 -2.63543,0 -5.92971,-2.03646 -5.80991,-3.53386 -6.28908,-8.62502 l 8.32555,-6.16929 q 0.41927,1.4974 1.4375,2.9948 2.75522,3.95313 6.46877,4.91147 0.65886,0.17969 1.19792,0.17969 1.67709,0 2.45574,-1.43751 0.17968,-0.29948 0.29948,-0.89844 l 0.0599,-0.41927 v -0.41927 q 0.0599,-0.35938 0.0599,-0.71875 0,-0.53907 -0.11979,-1.01823 -1.07813,-5.39064 -7.66669,-8.68492 -6.58856,-3.35418 -8.38544,-4.67189 -4.5521,-3.47397 -4.5521,-8.08596 v -0.65886 q 0.29948,-4.25261 3.23439,-7.06772 l 0.59896,-0.53907 11.55992,-8.62502 q 0.53907,-0.0599 1.13803,-0.0599 3.65365,0 7.30731,2.63543 4.13282,2.9349 5.63022,6.94793 l -8.56512,6.40887 q 0,-0.23958 -1.79688,-2.57552 -1.97657,-2.39584 -3.65366,-3.35418 -1.4375,-0.95834 -3.77345,-1.19792 h -0.23958 q -0.65886,0 -1.01823,0.23958 l -0.1198,0.1198 q -1.25781,0.95833 -1.25781,2.63542 v 0.11979 q 0.0599,0.59896 0.29948,1.31771 0.17969,0.47917 0.47917,1.01824 1.4375,2.15625 9.64325,6.94793 z"
         style="font-style:normal;font-variant:normal;font-weight:normal;font-stretch:normal;font-size:122.667px;line-height:1.25;font-family:'Enchanted Land';-inkscape-font-specification:'Enchanted Land';white-space:pre;shape-inside:url(#rect39);fill:#000000;fill-opacity:1;stroke:none"
         id="path215" />
      <text
         xml:space="preserve"
         style="font-style:normal;font-weight:normal;font-size:53.3333px;line-height:1.25;font-family:sans-serif;fill:#000000;fill-opacity:1;stroke:none;stroke-width:2.06224"
         x="219.66266"
         y="301.64978"
         id="text220"
         transform="scale(0.99678587,1.0032245)"><tspan
           sodipodi:role="line"
           id="tspan218"
           x="219.66266"
           y="301.64978"
           style="font-style:normal;font-variant:normal;font-weight:normal;font-stretch:normal;font-size:53.3333px;font-family:'Bookman Old Style';-inkscape-font-specification:'Bookman Old Style';stroke-width:2.06224">Tales of the Front</tspan></text>
      <g
         id="g1456"
         style="opacity:1">
        <path
           style="color:#000000;font-style:normal;font-variant:normal;font-weight:normal;font-stretch:normal;font-size:medium;line-height:1.25;font-family:'Enchanted Land';-inkscape-font-specification:'Enchanted Land';font-variant-ligatures:normal;font-variant-position:normal;font-variant-caps:normal;font-variant-numeric:normal;font-variant-alternates:normal;font-variant-east-asian:normal;font-feature-settings:normal;font-variation-settings:normal;text-indent:0;text-align:start;text-decoration:none;text-decoration-line:none;text-decoration-style:solid;text-decoration-color:#000000;letter-spacing:normal;word-spacing:normal;text-transform:none;writing-mode:lr-tb;direction:ltr;text-orientation:mixed;dominant-baseline:auto;baseline-shift:baseline;text-anchor:start;white-space:normal;shape-padding:0;shape-margin:0;inline-size:0;clip-rule:nonzero;display:inline;overflow:visible;visibility:visible;isolation:auto;mix-blend-mode:normal;color-interpolation:sRGB;color-interpolation-filters:linearRGB;solid-color:#000000;solid-opacity:1;vector-effect:none;fill:#ffffff;fill-opacity:0;fill-rule:nonzero;stroke:none;stroke-width:3;stroke-linecap:butt;stroke-linejoin:round;stroke-miterlimit:4;stroke-dasharray:none;stroke-dashoffset:0;stroke-opacity:1.0;color-rendering:auto;image-rendering:auto;shape-rendering:auto;text-rendering:auto;enable-background:accumulate;stop-color:#000000;stop-opacity:1;"
           d="m 469.80764,253.39815 c 0,4.60261 -3.73115,8.33376 -8.33376,8.33376 -4.60261,0 -8.33376,-3.73115 -8.33376,-8.33376 0,-4.60261 3.73115,-8.33376 8.33376,-8.33376 4.60261,0 8.33376,3.73115 8.33376,8.33376 z"
           id="path1458" />
      </g>
      <path
         style="fill:#000000;fill-opacity:1;stroke:none;stroke-width:3;stroke-linejoin:round;stroke-miterlimit:4;stroke-dasharray:none;stroke-dashoffset:0;stroke-opacity:1"
         id="path1453"
         d="m 75.333206,247.58807 c 16.179702,0.25048 32.366214,-0.1873 48.543894,-0.44428 35.08232,-0.45463 70.17083,-0.7796 105.25665,-0.61708 27.14067,0.12571 140.87847,-0.64621 167.48221,-0.14717 20.20935,0.41849 40.41243,1.06588 60.61387,1.75627 l 1.68817,-1.22242 4.79534,-3.47234 v 0 c 0,0 -1.97592,0.001 -5.28424,0.002 -11.92886,0.002 -41.18052,-0.005 -57.58722,-0.12518 -31.24115,-0.26482 -135.6948,0.84253 -167.76256,0.34699 -10.86124,-0.16784 -21.72126,-0.41067 -32.58264,-0.56945 -23.44971,-0.34281 -46.89973,-0.36648 -70.35092,-0.50909 -15.41957,-0.15887 -30.881288,-0.0362 -46.266856,-1.20719 z"
         sodipodi:nodetypes="ccscccccscssccc" />
      <path
         id="path1493"
         style="fill:#000000;fill-opacity:1;stroke:none;stroke-width:3;stroke-linejoin:round;stroke-miterlimit:4;stroke-dasharray:none;stroke-dashoffset:0;stroke-opacity:1"
         d="m 150.07795,135.46182 c 8.4548,6.65587 5.59549,3.44608 0.86237,8.44161 -3.34683,3.53239 -3.54163,7.72244 -3.60319,11.28866 -0.13886,8.04376 7.8998,2.37066 12.65248,1.99168 3.37053,-0.26877 3.99351,3.51427 3.8921,10.70014 0.19046,6.64799 1.10093,5.9275 -1.65038,5.47815 -7.136,-1.16548 -26.61767,7.1444 -26.61767,7.1444 1.74511,-0.0397 7.83136,-8.02649 7.43942,-13.15185 -0.49955,-6.53254 -11.0865,-13.09141 -13.64893,-14.03708 -5.28593,-1.95077 -48.367172,0.0359 -46.750749,-5.41802 0.105779,-5.91871 -0.260238,-10.94662 -0.906108,-16.65277 -0.337592,-2.98239 -2.304623,-1.9631 4.722759,-2.83273 6.036818,-0.74705 5.443816,1.94856 5.782496,5.30314 0.668643,6.62283 7.791192,5.25275 10.144952,4.3962 3.77553,-1.37395 5.75531,-2.82525 4.91601,-8.04871 -0.61854,-3.84945 -3.12108,-4.94359 7.86193,-4.51708 13.33648,0.51791 9.03845,0.96755 9.12017,4.49972 0.14553,6.29039 -0.45319,7.60252 2.86162,9.14846 2.79795,1.30489 10.91714,-0.65085 14.09951,-3.74991 4.14425,-4.03576 1.5852,-5.68041 8.82121,0.016 z"
         sodipodi:nodetypes="sssscscsscsssssssssss" />
      <path
         sodipodi:nodetypes="ccscccscssccc"
         d="m 489.27603,240.60963 c 15.27258,0.25048 33.22102,-0.40515 48.49169,-0.66213 33.11542,-0.45463 66.23669,-0.7796 99.35541,-0.61708 25.61902,0.12571 132.98008,-0.64621 158.09228,-0.14717 19.07631,0.41849 38.1467,1.06588 57.21554,1.75627 l 6.12001,-4.69476 v 0 c 0,0 -39.56463,0.0305 -59.34656,-0.12306 -29.48961,-0.26482 -128.08703,0.84253 -158.35692,0.34699 -10.2523,-0.16784 -20.50345,-0.41067 -30.75588,-0.56945 -22.135,-0.34281 -44.27028,-0.36648 -66.40667,-0.50909 -14.55507,-0.15887 -29.14992,-0.0362 -43.67289,-1.20719 z"
         id="path1453-5"
         style="font-style:normal;font-variant:normal;font-weight:normal;font-stretch:normal;font-size:122.667px;line-height:1.25;font-family:'Enchanted Land';-inkscape-font-specification:'Enchanted Land';white-space:pre;shape-inside:url(#rect39);fill:#000000;fill-opacity:1;stroke:none;stroke-width:2.91469;stroke-linejoin:round;stroke-miterlimit:4;stroke-dasharray:none;stroke-dashoffset:0;stroke-opacity:1" />
    </g>
  </g>
</svg>
